<svg width="480" height="251" viewBox="0 0 480 251" fill="none" xmlns="http://www.w3.org/2000/svg">
	<path d="M3.61932 94V0.909088H38.5284C45.6799 0.909088 51.6799 2.24242 56.5284 4.90909C61.4072 7.57575 65.089 11.2424 67.5739 15.9091C70.089 20.5455 71.3466 25.8182 71.3466 31.7273C71.3466 37.697 70.089 43 67.5739 47.6364C65.0587 52.2727 61.3466 55.9242 56.4375 58.5909C51.5284 61.2273 45.483 62.5455 38.3011 62.5455H15.1648V48.6818H36.0284C40.2102 48.6818 43.6345 47.9545 46.3011 46.5C48.9678 45.0455 50.9375 43.0455 52.2102 40.5C53.5133 37.9545 54.1648 35.0303 54.1648 31.7273C54.1648 28.4242 53.5133 25.5152 52.2102 23C50.9375 20.4848 48.9527 18.5303 46.2557 17.1364C43.589 15.7121 40.1496 15 35.9375 15H20.483V94H3.61932ZM85.267 94V24.1818H101.222V35.8182H101.949C103.222 31.7879 105.403 28.6818 108.494 26.5C111.616 24.2879 115.176 23.1818 119.176 23.1818C120.085 23.1818 121.1 23.2273 122.222 23.3182C123.373 23.3788 124.328 23.4848 125.085 23.6364V38.7727C124.388 38.5303 123.282 38.3182 121.767 38.1364C120.282 37.9242 118.843 37.8182 117.449 37.8182C114.449 37.8182 111.752 38.4697 109.358 39.7727C106.994 41.0455 105.131 42.8182 103.767 45.0909C102.403 47.3636 101.722 49.9848 101.722 52.9545V94H85.267ZM163.597 95.3636C156.778 95.3636 150.869 93.8636 145.869 90.8636C140.869 87.8636 136.991 83.6667 134.233 78.2727C131.506 72.8788 130.142 66.5758 130.142 59.3636C130.142 52.1515 131.506 45.8333 134.233 40.4091C136.991 34.9848 140.869 30.7727 145.869 27.7727C150.869 24.7727 156.778 23.2727 163.597 23.2727C170.415 23.2727 176.324 24.7727 181.324 27.7727C186.324 30.7727 190.188 34.9848 192.915 40.4091C195.672 45.8333 197.051 52.1515 197.051 59.3636C197.051 66.5758 195.672 72.8788 192.915 78.2727C190.188 83.6667 186.324 87.8636 181.324 90.8636C176.324 93.8636 170.415 95.3636 163.597 95.3636ZM163.688 82.1818C167.384 82.1818 170.475 81.1667 172.96 79.1364C175.445 77.0758 177.294 74.3182 178.506 70.8636C179.748 67.4091 180.369 63.5606 180.369 59.3182C180.369 55.0455 179.748 51.1818 178.506 47.7273C177.294 44.2424 175.445 41.4697 172.96 39.4091C170.475 37.3485 167.384 36.3182 163.688 36.3182C159.9 36.3182 156.748 37.3485 154.233 39.4091C151.748 41.4697 149.884 44.2424 148.642 47.7273C147.43 51.1818 146.824 55.0455 146.824 59.3182C146.824 63.5606 147.43 67.4091 148.642 70.8636C149.884 74.3182 151.748 77.0758 154.233 79.1364C156.748 81.1667 159.9 82.1818 163.688 82.1818ZM236.926 95.2273C231.441 95.2273 226.532 93.8182 222.199 91C217.866 88.1818 214.441 84.0909 211.926 78.7273C209.411 73.3636 208.153 66.8485 208.153 59.1818C208.153 51.4242 209.426 44.8788 211.972 39.5455C214.547 34.1818 218.017 30.1364 222.381 27.4091C226.744 24.6515 231.608 23.2727 236.972 23.2727C241.063 23.2727 244.426 23.9697 247.062 25.3636C249.699 26.7273 251.79 28.3788 253.335 30.3182C254.881 32.2273 256.078 34.0303 256.926 35.7273H257.608V0.909088H274.108V94H257.926V83H256.926C256.078 84.697 254.85 86.5 253.244 88.4091C251.638 90.2879 249.517 91.8939 246.881 93.2273C244.244 94.5606 240.926 95.2273 236.926 95.2273ZM241.517 81.7273C245.002 81.7273 247.972 80.7879 250.426 78.9091C252.881 77 254.744 74.3485 256.017 70.9545C257.29 67.5606 257.926 63.6061 257.926 59.0909C257.926 54.5758 257.29 50.6515 256.017 47.3182C254.775 43.9848 252.926 41.3939 250.472 39.5455C248.047 37.697 245.063 36.7727 241.517 36.7727C237.85 36.7727 234.79 37.7273 232.335 39.6364C229.881 41.5455 228.032 44.1818 226.79 47.5455C225.547 50.9091 224.926 54.7576 224.926 59.0909C224.926 63.4545 225.547 67.3485 226.79 70.7727C228.063 74.1667 229.926 76.8485 232.381 78.8182C234.866 80.7576 237.911 81.7273 241.517 81.7273ZM336.142 64.6364V24.1818H352.597V94H336.642V81.5909H335.915C334.339 85.5 331.748 88.697 328.142 91.1818C324.566 93.6667 320.157 94.9091 314.915 94.9091C310.339 94.9091 306.294 93.8939 302.778 91.8636C299.294 89.803 296.566 86.8182 294.597 82.9091C292.627 78.9697 291.642 74.2121 291.642 68.6364V24.1818H308.097V66.0909C308.097 70.5152 309.309 74.0303 311.733 76.6364C314.157 79.2424 317.339 80.5455 321.278 80.5455C323.703 80.5455 326.051 79.9545 328.324 78.7727C330.597 77.5909 332.46 75.8333 333.915 73.5C335.4 71.1364 336.142 68.1818 336.142 64.6364ZM399.972 95.3636C393.002 95.3636 387.017 93.8333 382.017 90.7727C377.047 87.7121 373.214 83.4848 370.517 78.0909C367.85 72.6667 366.517 66.4242 366.517 59.3636C366.517 52.2727 367.881 46.0152 370.608 40.5909C373.335 35.1364 377.184 30.8939 382.153 27.8636C387.153 24.803 393.063 23.2727 399.881 23.2727C405.547 23.2727 410.563 24.3182 414.926 26.4091C419.32 28.4697 422.82 31.3939 425.426 35.1818C428.032 38.9394 429.517 43.3333 429.881 48.3636H414.153C413.517 45 412.002 42.197 409.608 39.9545C407.244 37.6818 404.078 36.5455 400.108 36.5455C396.744 36.5455 393.79 37.4545 391.244 39.2727C388.699 41.0606 386.714 43.6364 385.29 47C383.896 50.3636 383.199 54.3939 383.199 59.0909C383.199 63.8485 383.896 67.9394 385.29 71.3636C386.684 74.7576 388.638 77.3788 391.153 79.2273C393.699 81.0455 396.684 81.9545 400.108 81.9545C402.532 81.9545 404.699 81.5 406.608 80.5909C408.547 79.6515 410.169 78.303 411.472 76.5455C412.775 74.7879 413.669 72.6515 414.153 70.1364H429.881C429.487 75.0758 428.032 79.4545 425.517 83.2727C423.002 87.0606 419.578 90.0303 415.244 92.1818C410.911 94.303 405.82 95.3636 399.972 95.3636ZM478.256 24.1818V36.9091H438.119V24.1818H478.256ZM448.028 7.45454H464.483V73C464.483 75.2121 464.816 76.9091 465.483 78.0909C466.18 79.2424 467.089 80.0303 468.21 80.4545C469.331 80.8788 470.574 81.0909 471.938 81.0909C472.968 81.0909 473.907 81.0152 474.756 80.8636C475.634 80.7121 476.301 80.5758 476.756 80.4545L479.528 93.3182C478.65 93.6212 477.392 93.9545 475.756 94.3182C474.15 94.6818 472.18 94.8939 469.847 94.9545C465.725 95.0758 462.013 94.4545 458.71 93.0909C455.407 91.697 452.786 89.5455 450.847 86.6364C448.938 83.7273 447.998 80.0909 448.028 75.7273V7.45454ZM18.8864 249H0.886364L33.6591 155.909H54.4773L87.2955 249H69.2955L44.4318 175H43.7045L18.8864 249ZM19.4773 212.5H68.5682V226.045H19.4773V212.5ZM98.8295 249V179.182H114.784V190.818H115.511C116.784 186.788 118.966 183.682 122.057 181.5C125.178 179.288 128.739 178.182 132.739 178.182C133.648 178.182 134.663 178.227 135.784 178.318C136.936 178.379 137.89 178.485 138.648 178.636V193.773C137.951 193.53 136.845 193.318 135.33 193.136C133.845 192.924 132.405 192.818 131.011 192.818C128.011 192.818 125.314 193.47 122.92 194.773C120.557 196.045 118.693 197.818 117.33 200.091C115.966 202.364 115.284 204.985 115.284 207.955V249H98.8295ZM188.193 179.182V191.909H148.057V179.182H188.193ZM157.966 162.455H174.42V228C174.42 230.212 174.754 231.909 175.42 233.091C176.117 234.242 177.027 235.03 178.148 235.455C179.269 235.879 180.511 236.091 181.875 236.091C182.905 236.091 183.845 236.015 184.693 235.864C185.572 235.712 186.239 235.576 186.693 235.455L189.466 248.318C188.587 248.621 187.33 248.955 185.693 249.318C184.087 249.682 182.117 249.894 179.784 249.955C175.663 250.076 171.951 249.455 168.648 248.091C165.345 246.697 162.723 244.545 160.784 241.636C158.875 238.727 157.936 235.091 157.966 230.727V162.455ZM201.955 249V179.182H218.409V249H201.955ZM210.227 169.273C207.621 169.273 205.379 168.409 203.5 166.682C201.621 164.924 200.682 162.818 200.682 160.364C200.682 157.879 201.621 155.773 203.5 154.045C205.379 152.288 207.621 151.409 210.227 151.409C212.864 151.409 215.106 152.288 216.955 154.045C218.833 155.773 219.773 157.879 219.773 160.364C219.773 162.818 218.833 164.924 216.955 166.682C215.106 168.409 212.864 169.273 210.227 169.273ZM265.784 250.364C258.814 250.364 252.83 248.833 247.83 245.773C242.86 242.712 239.027 238.485 236.33 233.091C233.663 227.667 232.33 221.424 232.33 214.364C232.33 207.273 233.693 201.015 236.42 195.591C239.148 190.136 242.996 185.894 247.966 182.864C252.966 179.803 258.875 178.273 265.693 178.273C271.36 178.273 276.375 179.318 280.739 181.409C285.133 183.47 288.633 186.394 291.239 190.182C293.845 193.939 295.33 198.333 295.693 203.364H279.966C279.33 200 277.814 197.197 275.42 194.955C273.057 192.682 269.89 191.545 265.92 191.545C262.557 191.545 259.602 192.455 257.057 194.273C254.511 196.061 252.527 198.636 251.102 202C249.708 205.364 249.011 209.394 249.011 214.091C249.011 218.848 249.708 222.939 251.102 226.364C252.496 229.758 254.451 232.379 256.966 234.227C259.511 236.045 262.496 236.955 265.92 236.955C268.345 236.955 270.511 236.5 272.42 235.591C274.36 234.652 275.981 233.303 277.284 231.545C278.587 229.788 279.481 227.652 279.966 225.136H295.693C295.299 230.076 293.845 234.455 291.33 238.273C288.814 242.061 285.39 245.03 281.057 247.182C276.723 249.303 271.633 250.364 265.784 250.364ZM325.659 155.909V249H309.205V155.909H325.659ZM373.489 250.364C366.489 250.364 360.443 248.909 355.352 246C350.292 243.061 346.398 238.909 343.67 233.545C340.943 228.152 339.58 221.803 339.58 214.5C339.58 207.318 340.943 201.015 343.67 195.591C346.428 190.136 350.277 185.894 355.216 182.864C360.155 179.803 365.958 178.273 372.625 178.273C376.928 178.273 380.989 178.97 384.807 180.364C388.655 181.727 392.049 183.848 394.989 186.727C397.958 189.606 400.292 193.273 401.989 197.727C403.686 202.152 404.534 207.424 404.534 213.545V218.591H347.307V207.5H388.761C388.731 204.348 388.049 201.545 386.716 199.091C385.383 196.606 383.519 194.652 381.125 193.227C378.761 191.803 376.004 191.091 372.852 191.091C369.489 191.091 366.534 191.909 363.989 193.545C361.443 195.152 359.458 197.273 358.034 199.909C356.64 202.515 355.928 205.379 355.898 208.5V218.182C355.898 222.242 356.64 225.727 358.125 228.636C359.61 231.515 361.686 233.727 364.352 235.273C367.019 236.788 370.14 237.545 373.716 237.545C376.11 237.545 378.277 237.212 380.216 236.545C382.155 235.848 383.837 234.833 385.261 233.5C386.686 232.167 387.761 230.515 388.489 228.545L403.852 230.273C402.883 234.333 401.034 237.879 398.307 240.909C395.61 243.909 392.155 246.242 387.943 247.909C383.731 249.545 378.913 250.364 373.489 250.364ZM473.636 197.636L458.636 199.273C458.212 197.758 457.47 196.333 456.409 195C455.379 193.667 453.985 192.591 452.227 191.773C450.47 190.955 448.318 190.545 445.773 190.545C442.348 190.545 439.47 191.288 437.136 192.773C434.833 194.258 433.697 196.182 433.727 198.545C433.697 200.576 434.439 202.227 435.955 203.5C437.5 204.773 440.045 205.818 443.591 206.636L455.5 209.182C462.106 210.606 467.015 212.864 470.227 215.955C473.47 219.045 475.106 223.091 475.136 228.091C475.106 232.485 473.818 236.364 471.273 239.727C468.758 243.061 465.258 245.667 460.773 247.545C456.288 249.424 451.136 250.364 445.318 250.364C436.773 250.364 429.894 248.576 424.682 245C419.47 241.394 416.364 236.379 415.364 229.955L431.409 228.409C432.136 231.561 433.682 233.939 436.045 235.545C438.409 237.152 441.485 237.955 445.273 237.955C449.182 237.955 452.318 237.152 454.682 235.545C457.076 233.939 458.273 231.955 458.273 229.591C458.273 227.591 457.5 225.939 455.955 224.636C454.439 223.333 452.076 222.333 448.864 221.636L436.955 219.136C430.258 217.742 425.303 215.394 422.091 212.091C418.879 208.758 417.288 204.545 417.318 199.455C417.288 195.152 418.455 191.424 420.818 188.273C423.212 185.091 426.53 182.636 430.773 180.909C435.045 179.152 439.97 178.273 445.545 178.273C453.727 178.273 460.167 180.015 464.864 183.5C469.591 186.985 472.515 191.697 473.636 197.636Z" fill="white" />
</svg>
