<svg width="1280" height="720" viewBox="0 0 1280 720" fill="none" xmlns="http://www.w3.org/2000/svg">
	<g clip-path="url(#clip0_1067_10)">
		<rect width="1280" height="720" fill="white" />
		<g clip-path="url(#clip1_1067_10)">
			<rect width="1280" height="832" transform="translate(0 -112)" fill="white" />
			<g clip-path="url(#clip2_1067_10)" filter="url(#filter0_f_1067_10)">
				<g clip-path="url(#clip3_1067_10)">
					<mask id="mask0_1067_10" style="mask-type:luminance" maskUnits="userSpaceOnUse" x="333" y="-135" width="1244" height="905">
						<path d="M1577 -135H333V770H1577V-135Z" fill="white" />
					</mask>
					<g mask="url(#mask0_1067_10)">
						<mask id="mask1_1067_10" style="mask-type:luminance" maskUnits="userSpaceOnUse" x="333" y="-135" width="1244" height="905">
							<path d="M1577 -135H333V770H1577V-135Z" fill="white" />
						</mask>
						<g mask="url(#mask1_1067_10)">
							<path d="M1577 -135H333V770H1577V-135Z" fill="#002F00" />
							<g opacity="0.1">
								<path d="M771.226 805.351C807.66 805.351 837.195 775.807 837.195 739.362V326.927C837.195 290.482 866.731 260.937 903.165 260.937H971.491C1007.92 260.937 1037.46 290.482 1037.46 326.927V616.81C1037.46 653.255 1067 682.799 1103.43 682.799H1144.66C1177.84 682.799 1204.74 655.894 1204.74 622.702V597.955C1204.74 578.432 1188.92 562.604 1169.4 562.604C1149.88 562.604 1134.06 546.776 1134.06 527.252V235.013C1134.06 198.568 1104.52 169.023 1068.09 169.023H903.165C866.731 169.023 837.195 139.479 837.195 103.034V-14.805C837.195 -44.7421 812.933 -69.0107 783.006 -69.0107C753.078 -69.0107 728.817 -44.7421 728.817 -14.805V628.593C728.817 665.039 699.281 694.583 662.847 694.583H426.063C395.484 694.583 370.695 719.381 370.695 749.967C370.695 780.553 395.484 805.351 426.063 805.351H771.226Z" fill="url(#paint0_linear_1067_10)" fill-opacity="0.78" />
								<path d="M1571.1 1123.52C1544.43 1123.52 1522.81 1101.89 1522.81 1075.2V541.393C1522.81 511.458 1498.54 487.188 1468.62 487.188C1438.69 487.188 1414.43 511.458 1414.43 541.393V812.422C1414.43 864.488 1372.23 906.693 1320.18 906.693H1188.25C1164.82 906.693 1145.84 887.702 1145.84 864.271C1145.84 840.84 1164.82 821.849 1188.25 821.849H1233.01C1281.15 821.849 1320.18 782.807 1320.18 734.648V544.928C1320.18 462.276 1387.17 395.273 1469.79 395.273C1552.42 395.273 1619.4 462.276 1619.4 544.928V1075.2C1619.4 1101.89 1597.78 1123.52 1571.1 1123.52Z" fill="url(#paint1_linear_1067_10)" fill-opacity="0.78" />
								<mask id="mask2_1067_10" style="mask-type:alpha" maskUnits="userSpaceOnUse" x="370" y="-70" width="1250" height="1194">
									<g opacity="0.1">
										<g opacity="0.1">
											<path d="M771.226 805.351C807.66 805.351 837.195 775.807 837.195 739.362V326.927C837.195 290.482 866.731 260.937 903.165 260.937H971.491C1007.92 260.937 1037.46 290.482 1037.46 326.927V616.81C1037.46 653.255 1067 682.799 1103.43 682.799H1144.66C1177.84 682.799 1204.74 655.894 1204.74 622.702V597.955C1204.74 578.432 1188.92 562.604 1169.4 562.604C1149.88 562.604 1134.06 546.776 1134.06 527.252V235.013C1134.06 198.568 1104.52 169.023 1068.09 169.023H903.165C866.731 169.023 837.195 139.479 837.195 103.034V-14.805C837.195 -44.7421 812.933 -69.0107 783.006 -69.0107C753.078 -69.0107 728.817 -44.7421 728.817 -14.805V628.593C728.817 665.039 699.281 694.583 662.847 694.583H426.063C395.484 694.583 370.695 719.381 370.695 749.967C370.695 780.553 395.484 805.351 426.063 805.351H771.226Z" fill="black" fill-opacity="0.78" />
											<path d="M1571.1 1123.52C1544.43 1123.52 1522.81 1101.89 1522.81 1075.2V541.393C1522.81 511.458 1498.54 487.188 1468.62 487.188C1438.69 487.188 1414.43 511.458 1414.43 541.393V812.422C1414.43 864.488 1372.23 906.693 1320.18 906.693H1188.25C1164.82 906.693 1145.84 887.702 1145.84 864.271C1145.84 840.84 1164.82 821.849 1188.25 821.849H1233.01C1281.15 821.849 1320.18 782.807 1320.18 734.648V544.928C1320.18 462.276 1387.17 395.273 1469.79 395.273C1552.42 395.273 1619.4 462.276 1619.4 544.928V1075.2C1619.4 1101.89 1597.78 1123.52 1571.1 1123.52Z" fill="black" fill-opacity="0.78" />
										</g>
									</g>
								</mask>
								<g mask="url(#mask2_1067_10)">
									<path d="M879.604 374.062H992.695C1016.12 374.062 1035.1 355.071 1035.1 331.64V303.358C1035.1 279.929 1016.12 260.937 992.695 260.937H879.604C856.18 260.937 837.195 279.929 837.195 303.358V331.64C837.195 355.071 856.18 374.062 879.604 374.062Z" fill="black" fill-opacity="0.25" />
									<path d="M879.604 166.666H992.695C1016.12 166.666 1035.1 147.673 1035.1 124.244V95.9629C1035.1 72.5338 1016.12 53.541 992.695 53.541H879.604C856.18 53.541 837.195 72.5338 837.195 95.9629V124.244C837.195 147.673 856.18 166.666 879.604 166.666Z" fill="black" fill-opacity="0.25" />
									<path d="M573.315 694.583H686.406C709.828 694.583 728.815 675.592 728.815 652.161V623.88C728.815 600.449 709.828 581.458 686.406 581.458H573.315C549.893 581.458 530.906 600.449 530.906 623.88V652.161C530.906 675.592 549.893 694.583 573.315 694.583Z" fill="black" fill-opacity="0.25" />
									<path d="M1320.19 751.146C1320.19 790.192 1288.54 821.849 1249.51 821.849H1164.69C1141.27 821.849 1122.28 802.858 1122.28 779.427V708.724H1320.19V751.146Z" fill="black" fill-opacity="0.25" />
								</g>
							</g>
							<g opacity="0.1">
								<path d="M1084.58 595.599C1084.58 559.154 1055.05 529.609 1018.61 529.609H606.303C569.868 529.609 540.333 500.065 540.333 463.62V395.273C540.333 358.828 569.868 329.284 606.303 329.284H896.098C932.532 329.284 962.068 299.739 962.068 263.294V222.051C962.068 188.86 935.171 161.953 901.988 161.953H877.25C857.732 161.953 841.909 177.781 841.909 197.305C841.909 216.829 826.085 232.656 806.568 232.656H514.416C477.982 232.656 448.447 262.201 448.447 298.646V463.62C448.447 500.065 418.911 529.609 382.477 529.609H264.674C234.746 529.609 210.484 553.879 210.484 583.815C210.484 613.751 234.746 638.021 264.674 638.021H907.878C944.312 638.021 973.848 667.565 973.848 704.01V940.866C973.848 971.452 998.639 996.25 1029.22 996.25C1059.79 996.25 1084.58 971.452 1084.58 940.866V595.599Z" fill="url(#paint2_linear_1067_10)" fill-opacity="0.78" />
								<path d="M1402.65 -204.525C1402.65 -177.842 1381.02 -156.211 1354.35 -156.211H820.701C790.773 -156.211 766.511 -131.943 766.511 -102.006C766.511 -72.0684 790.773 -47.7998 820.701 -47.7998H1091.65C1143.7 -47.7998 1185.89 -5.59335 1185.89 46.471V178.45C1185.89 201.879 1166.9 220.872 1143.48 220.872C1120.06 220.872 1101.07 201.879 1101.07 178.45V133.672C1101.07 85.5119 1062.04 46.471 1013.9 46.471H824.235C741.608 46.471 674.625 -20.532 674.625 -103.184C674.625 -185.836 741.608 -252.839 824.235 -252.839H1354.35C1381.02 -252.839 1402.65 -231.208 1402.65 -204.525Z" fill="url(#paint3_linear_1067_10)" fill-opacity="0.78" />
								<mask id="mask3_1067_10" style="mask-type:alpha" maskUnits="userSpaceOnUse" x="210" y="-253" width="1193" height="1250">
									<g opacity="0.1">
										<g opacity="0.1">
											<path d="M1084.58 595.599C1084.58 559.154 1055.05 529.609 1018.61 529.609H606.303C569.868 529.609 540.333 500.065 540.333 463.62V395.273C540.333 358.828 569.868 329.284 606.303 329.284H896.098C932.532 329.284 962.068 299.739 962.068 263.294V222.051C962.068 188.86 935.171 161.953 901.988 161.953H877.25C857.732 161.953 841.909 177.781 841.909 197.305C841.909 216.829 826.085 232.656 806.568 232.656H514.416C477.982 232.656 448.447 262.201 448.447 298.646V463.62C448.447 500.065 418.911 529.609 382.477 529.609H264.674C234.746 529.609 210.484 553.879 210.484 583.815C210.484 613.751 234.746 638.021 264.674 638.021H907.878C944.312 638.021 973.848 667.565 973.848 704.01V940.866C973.848 971.452 998.639 996.25 1029.22 996.25C1059.79 996.25 1084.58 971.452 1084.58 940.866V595.599Z" fill="black" fill-opacity="0.78" />
											<path d="M1402.65 -204.525C1402.65 -177.842 1381.02 -156.211 1354.35 -156.211H820.701C790.773 -156.211 766.511 -131.943 766.511 -102.006C766.511 -72.0684 790.773 -47.7998 820.701 -47.7998H1091.65C1143.7 -47.7998 1185.89 -5.59335 1185.89 46.471V178.45C1185.89 201.879 1166.9 220.872 1143.48 220.872C1120.06 220.872 1101.07 201.879 1101.07 178.45V133.672C1101.07 85.5119 1062.04 46.471 1013.9 46.471H824.235C741.608 46.471 674.625 -20.532 674.625 -103.184C674.625 -185.836 741.608 -252.839 824.235 -252.839H1354.35C1381.02 -252.839 1402.65 -231.208 1402.65 -204.525Z" fill="black" fill-opacity="0.78" />
										</g>
									</g>
								</mask>
								<g mask="url(#mask3_1067_10)">
									<path d="M653.427 487.188V374.062C653.427 350.631 634.44 331.641 611.018 331.641H582.745C559.323 331.641 540.336 350.631 540.336 374.062V487.188C540.336 510.619 559.323 529.609 582.745 529.609H611.018C634.44 529.609 653.427 510.619 653.427 487.188Z" fill="black" fill-opacity="0.25" />
									<path d="M446.091 487.188V374.062C446.091 350.631 427.104 331.641 403.682 331.641H375.409C351.987 331.641 333 350.631 333 374.062V487.188C333 510.619 351.987 529.609 375.409 529.609H403.682C427.104 529.609 446.091 510.619 446.091 487.188Z" fill="black" fill-opacity="0.25" />
									<path d="M973.849 793.567V680.442C973.849 657.011 954.864 638.021 931.44 638.021H903.167C879.743 638.021 860.758 657.011 860.758 680.442V793.567C860.758 816.998 879.743 835.989 903.167 835.989H931.44C954.864 835.989 973.849 816.998 973.849 793.567Z" fill="black" fill-opacity="0.25" />
									<path d="M1030.39 46.4717C1069.43 46.4717 1101.08 78.1264 1101.08 117.175V202.019C1101.08 225.448 1082.09 244.44 1058.67 244.44H987.984V46.4717H1030.39Z" fill="black" fill-opacity="0.25" />
								</g>
							</g>
							<path d="M1313.12 46.4717C1276.69 46.4717 1247.15 76.0162 1247.15 112.461V524.896C1247.15 561.341 1217.62 590.886 1181.19 590.886H1112.86C1076.43 590.886 1046.89 561.341 1046.89 524.896V235.013C1046.89 198.568 1017.35 169.024 980.92 169.024H939.689C906.506 169.024 879.609 195.931 879.609 229.121V253.868C879.609 273.391 895.433 289.219 914.95 289.219C934.468 289.219 950.291 305.047 950.291 324.571V616.81C950.291 653.255 979.827 682.8 1016.26 682.8H1181.19C1217.62 682.8 1247.15 712.344 1247.15 748.789V866.628C1247.15 896.564 1271.42 920.834 1301.34 920.834C1331.27 920.834 1355.53 896.564 1355.53 866.628V223.23C1355.53 186.784 1385.07 157.24 1421.5 157.24H1658.29C1688.86 157.24 1713.65 132.443 1713.65 101.856C1713.65 71.2682 1688.86 46.4717 1658.29 46.4717H1313.12Z" fill="url(#paint4_linear_1067_10)" />
							<path d="M513.237 -271.692C539.912 -271.692 561.536 -250.061 561.536 -223.379V310.43C561.536 340.366 585.797 364.636 615.725 364.636C645.653 364.636 669.915 340.366 669.915 310.43V39.4014C669.915 -12.663 712.109 -54.8695 764.157 -54.8695H896.097C919.521 -54.8695 938.506 -35.8767 938.506 -12.4476C938.506 10.9815 919.521 29.9743 896.097 29.9743H851.331C803.186 29.9743 764.157 69.0151 764.157 117.175V306.895C764.157 389.547 697.174 456.55 614.547 456.55C531.92 456.55 464.938 389.547 464.938 306.895V-223.379C464.938 -250.061 486.562 -271.692 513.237 -271.692Z" fill="url(#paint5_linear_1067_10)" />
							<mask id="mask4_1067_10" style="mask-type:alpha" maskUnits="userSpaceOnUse" x="464" y="-272" width="1250" height="1193">
								<path d="M1313.12 46.4717C1276.68 46.4717 1247.15 76.0162 1247.15 112.461V524.896C1247.15 561.341 1217.61 590.886 1181.18 590.886H1112.85C1076.42 590.886 1046.88 561.341 1046.88 524.896V235.013C1046.88 198.568 1017.35 169.024 980.912 169.024H939.681C906.498 169.024 879.602 195.931 879.602 229.121V253.868C879.602 273.391 895.425 289.219 914.942 289.219C934.46 289.219 950.283 305.047 950.283 324.571V616.81C950.283 653.255 979.819 682.8 1016.25 682.8H1181.18C1217.61 682.8 1247.15 712.344 1247.15 748.789V866.628C1247.15 896.564 1271.41 920.834 1301.34 920.834C1331.26 920.834 1355.53 896.564 1355.53 866.628V223.23C1355.53 186.784 1385.06 157.24 1421.5 157.24H1658.28C1688.86 157.24 1713.65 132.443 1713.65 101.856C1713.65 71.2682 1688.86 46.4717 1658.28 46.4717H1313.12Z" fill="black" fill-opacity="0.78" />
								<path d="M513.237 -271.692C539.912 -271.692 561.536 -250.061 561.536 -223.379V310.43C561.536 340.366 585.797 364.636 615.725 364.636C645.653 364.636 669.915 340.366 669.915 310.43V39.4014C669.915 -12.663 712.109 -54.8695 764.157 -54.8695H896.097C919.521 -54.8695 938.506 -35.8767 938.506 -12.4476C938.506 10.9815 919.521 29.9743 896.097 29.9743H851.331C803.186 29.9743 764.157 69.0151 764.157 117.175V306.895C764.157 389.547 697.174 456.55 614.547 456.55C531.92 456.55 464.938 389.547 464.938 306.895V-223.379C464.938 -250.061 486.562 -271.692 513.237 -271.692Z" fill="black" fill-opacity="0.78" />
							</mask>
							<g mask="url(#mask4_1067_10)">
								<path d="M615.728 369.35C645.657 369.35 669.918 345.08 669.918 315.144C669.918 285.207 645.657 260.938 615.728 260.938C585.8 260.938 561.539 285.207 561.539 315.144C561.539 345.08 585.8 369.35 615.728 369.35Z" fill="black" fill-opacity="0.25" />
								<path d="M1204.74 477.761H1091.65C1068.23 477.761 1049.24 496.752 1049.24 520.183V548.464C1049.24 571.895 1068.23 590.886 1091.65 590.886H1204.74C1228.17 590.886 1247.15 571.895 1247.15 548.464V520.183C1247.15 496.752 1228.17 477.761 1204.74 477.761Z" fill="black" fill-opacity="0.25" />
								<path d="M1204.74 685.157H1091.65C1068.23 685.157 1049.24 704.148 1049.24 727.579V755.86C1049.24 779.291 1068.23 798.282 1091.65 798.282H1204.74C1228.17 798.282 1247.15 779.291 1247.15 755.86V727.579C1247.15 704.148 1228.17 685.157 1204.74 685.157Z" fill="black" fill-opacity="0.25" />
								<path d="M764.164 100.678C764.164 61.6293 795.809 29.9746 834.846 29.9746H919.664C943.088 29.9746 962.073 48.9674 962.073 72.3965V143.1H764.164V100.678Z" fill="black" fill-opacity="0.25" />
							</g>
							<g opacity="0.1">
								<path d="M995.055 53.5417C995.055 89.9868 1024.59 119.531 1061.02 119.531H1473.34C1509.77 119.531 1539.3 149.076 1539.3 185.521V253.867C1539.3 290.312 1509.77 319.857 1473.34 319.857H1183.54C1147.11 319.857 1117.57 349.401 1117.57 385.846V427.09C1117.57 460.283 1144.47 487.188 1177.65 487.188H1202.39C1221.91 487.188 1237.73 471.359 1237.73 451.836C1237.73 432.312 1253.55 416.484 1273.07 416.484H1565.22C1601.66 416.484 1631.19 386.94 1631.19 350.495V185.521C1631.19 149.076 1660.73 119.531 1697.16 119.531H1814.96C1844.89 119.531 1869.15 95.2626 1869.15 65.3255C1869.15 35.3884 1844.89 11.1198 1814.96 11.1198H1171.76C1135.33 11.1198 1105.79 -18.4247 1105.79 -54.8698V-291.725C1105.79 -322.313 1081 -347.109 1050.42 -347.109C1019.85 -347.109 995.055 -322.313 995.055 -291.725V53.5417Z" fill="url(#paint6_linear_1067_10)" fill-opacity="0.78" />
								<path d="M676.984 853.666C676.984 826.982 698.609 805.352 725.284 805.352H1258.93C1288.86 805.352 1313.12 781.082 1313.12 751.146C1313.12 721.21 1288.86 696.94 1258.93 696.94H987.984C935.934 696.94 893.742 654.735 893.742 602.67V470.69C893.742 447.259 912.727 428.269 936.151 428.269C959.575 428.269 978.56 447.259 978.56 470.69V515.469C978.56 563.627 1017.59 602.67 1065.73 602.67H1255.4C1338.02 602.67 1405.01 669.673 1405.01 752.325C1405.01 834.976 1338.02 901.979 1255.4 901.979H725.284C698.609 901.979 676.984 880.349 676.984 853.666Z" fill="url(#paint7_linear_1067_10)" fill-opacity="0.78" />
								<mask id="mask5_1067_10" style="mask-type:alpha" maskUnits="userSpaceOnUse" x="676" y="-348" width="1194" height="1250">
									<g opacity="0.1">
										<g opacity="0.1">
											<path d="M995.055 53.5417C995.055 89.9868 1024.59 119.531 1061.02 119.531H1473.34C1509.77 119.531 1539.3 149.076 1539.3 185.521V253.867C1539.3 290.312 1509.77 319.857 1473.34 319.857H1183.54C1147.11 319.857 1117.57 349.401 1117.57 385.846V427.09C1117.57 460.283 1144.47 487.188 1177.65 487.188H1202.39C1221.91 487.188 1237.73 471.359 1237.73 451.836C1237.73 432.312 1253.55 416.484 1273.07 416.484H1565.22C1601.66 416.484 1631.19 386.94 1631.19 350.495V185.521C1631.19 149.076 1660.73 119.531 1697.16 119.531H1814.96C1844.89 119.531 1869.15 95.2626 1869.15 65.3255C1869.15 35.3884 1844.89 11.1198 1814.96 11.1198H1171.76C1135.33 11.1198 1105.79 -18.4247 1105.79 -54.8698V-291.725C1105.79 -322.313 1081 -347.109 1050.42 -347.109C1019.85 -347.109 995.055 -322.313 995.055 -291.725V53.5417Z" fill="black" fill-opacity="0.78" />
											<path d="M676.984 853.666C676.984 826.982 698.609 805.352 725.284 805.352H1258.93C1288.86 805.352 1313.12 781.082 1313.12 751.146C1313.12 721.21 1288.86 696.94 1258.93 696.94H987.984C935.934 696.94 893.742 654.735 893.742 602.67V470.69C893.742 447.259 912.727 428.269 936.151 428.269C959.575 428.269 978.56 447.259 978.56 470.69V515.469C978.56 563.627 1017.59 602.67 1065.73 602.67H1255.4C1338.02 602.67 1405.01 669.673 1405.01 752.325C1405.01 834.976 1338.02 901.979 1255.4 901.979H725.284C698.609 901.979 676.984 880.349 676.984 853.666Z" fill="black" fill-opacity="0.78" />
										</g>
									</g>
								</mask>
								<g mask="url(#mask5_1067_10)">
									<path d="M1317.83 751.146C1317.83 721.21 1293.57 696.94 1263.64 696.94C1233.72 696.94 1209.45 721.21 1209.45 751.146C1209.45 781.082 1233.72 805.352 1263.64 805.352C1293.57 805.352 1317.83 781.082 1317.83 751.146Z" fill="black" fill-opacity="0.25" />
									<path d="M1105.79 -144.427V-31.3018C1105.79 -7.87263 1124.77 11.1201 1148.2 11.1201H1176.47C1199.89 11.1201 1218.88 -7.87263 1218.88 -31.3018V-144.427C1218.88 -167.856 1199.89 -186.849 1176.47 -186.849H1148.2C1124.77 -186.849 1105.79 -167.856 1105.79 -144.427Z" fill="black" fill-opacity="0.25" />
									<path d="M1049.24 602.67C1010.21 602.67 978.562 571.014 978.562 531.967V447.123C978.562 423.692 997.548 404.701 1020.97 404.701H1091.65V602.67H1049.24Z" fill="black" fill-opacity="0.25" />
								</g>
							</g>
						</g>
					</g>
				</g>
				<path d="M1342 -149H-61V756H1342V-149Z" fill="url(#paint8_linear_1067_10)" />
				<mask id="mask6_1067_10" style="mask-type:luminance" maskUnits="userSpaceOnUse" x="-61" y="-149" width="1403" height="905">
					<path d="M1342 -149H-61V756H1342V-149Z" fill="white" />
				</mask>
				<g mask="url(#mask6_1067_10)">
					<path d="M1342 -149H-61V756H1342V-149Z" fill="url(#paint9_linear_1067_10)" fill-opacity="0.2" />
					<g opacity="0.1">
						<g opacity="0.9">
							<path d="M196.217 490.176C196.217 473.345 196.217 464.927 192.94 458.498C190.057 452.844 185.458 448.246 179.801 445.364C173.37 442.088 164.951 442.088 148.114 442.088H-61V719.265H148.114C164.951 719.265 173.37 719.265 179.801 715.989C185.458 713.107 190.057 708.509 192.94 702.855C196.217 696.426 196.217 688.007 196.217 671.176V490.176Z" fill="url(#paint10_linear_1067_10)" />
							<path d="M304.557 759.709C316.693 735.895 319.619 713.871 320.662 701.114C321.51 690.742 321.497 679.525 321.487 672.846C321.487 672.251 321.487 671.694 321.487 671.176V490.176C321.487 489.658 321.487 489.101 321.487 488.506C321.497 481.827 321.51 470.61 320.662 460.237C319.619 447.481 316.693 425.457 304.557 401.643C289.665 372.426 265.902 348.669 236.674 333.781C212.856 321.649 190.823 318.724 178.063 317.682C167.687 316.833 156.467 316.847 149.785 316.857C149.192 316.857 148.634 316.857 148.116 316.857H-60.9978H-186.266V442.087V719.264V844.495H-60.9978H148.116C148.634 844.495 149.192 844.495 149.785 844.495C156.467 844.505 167.687 844.518 178.063 843.67C190.823 842.628 212.856 839.703 236.674 827.571M304.557 759.709L198.788 705.833M304.557 759.709C289.665 788.926 265.902 812.683 236.674 827.571M236.674 827.571L179.803 715.989" stroke="url(#paint11_linear_1067_10)" stroke-opacity="0.2" stroke-width="75" />
							<path d="M179.517 301.829H389.967C406.571 301.829 420.031 315.285 420.031 331.884V548.951C420.031 565.55 406.571 579.006 389.967 579.006H179.517C162.913 579.006 149.453 565.55 149.453 548.951V331.884C149.453 315.285 162.913 301.829 179.517 301.829Z" fill="url(#paint12_linear_1067_10)" />
							<path d="M179.515 176.599H389.965C475.752 176.599 545.297 246.123 545.297 331.885V548.951C545.297 634.713 475.752 704.237 389.965 704.237H179.515C93.7271 704.237 24.1826 634.713 24.1826 548.951V331.885C24.1826 246.123 93.7271 176.599 179.515 176.599Z" stroke="url(#paint13_linear_1067_10)" stroke-opacity="0.2" stroke-width="75" />
							<path d="M403.329 161.571H613.779C630.384 161.571 643.844 175.028 643.844 191.627V408.693C643.844 425.292 630.384 438.748 613.779 438.748H403.329C386.725 438.748 373.265 425.292 373.265 408.693V191.627C373.265 175.028 386.725 161.571 403.329 161.571Z" fill="url(#paint14_linear_1067_10)" />
							<path d="M403.327 36.3398H613.777C699.565 36.3398 769.109 105.864 769.109 191.626V408.692C769.109 494.454 699.565 563.978 613.777 563.978H403.327C317.54 563.978 247.995 494.454 247.995 408.692V191.626C247.995 105.864 317.54 36.3398 403.327 36.3398Z" stroke="url(#paint15_linear_1067_10)" stroke-opacity="0.2" stroke-width="75" />
							<path d="M623.798 21.3125H834.248C850.852 21.3125 864.312 34.7687 864.312 51.3679V268.434C864.312 285.033 850.852 298.49 834.248 298.49H623.798C607.194 298.49 593.734 285.033 593.734 268.434V51.3679C593.734 34.7687 607.194 21.3125 623.798 21.3125Z" fill="url(#paint16_linear_1067_10)" />
							<path d="M623.796 -103.918H834.246C920.034 -103.918 989.578 -34.3941 989.578 51.368V268.434C989.578 354.196 920.034 423.72 834.246 423.72H623.796C538.008 423.72 468.464 354.196 468.464 268.434V51.368C468.464 -34.3941 538.008 -103.918 623.796 -103.918Z" stroke="url(#paint17_linear_1067_10)" stroke-opacity="0.2" stroke-width="75" />
						</g>
						<g opacity="0.9">
							<path d="M1342 -38.7979H1132.88C1116.05 -38.7979 1107.63 -38.7979 1101.2 -35.5222C1095.54 -32.6405 1090.94 -28.0427 1088.06 -22.3873C1084.78 -15.9581 1084.78 -7.54195 1084.78 9.29071V190.291C1084.78 207.122 1084.78 215.541 1088.06 221.969C1090.94 227.623 1095.54 232.221 1101.2 235.103C1107.63 238.379 1116.05 238.379 1132.88 238.379H1342V-38.7979Z" fill="url(#paint18_linear_1067_10)" />
							<path d="M1044.32 346.686C1068.14 358.818 1090.17 361.743 1102.93 362.785C1113.31 363.633 1124.53 363.62 1131.21 363.61C1131.81 363.61 1132.36 363.61 1132.88 363.61H1341.99H1467.26V238.379V-38.7977V-164.028H1341.99H1132.88C1132.36 -164.028 1131.81 -164.029 1131.21 -164.03C1124.53 -164.037 1113.31 -164.05 1102.93 -163.203C1090.17 -162.161 1068.14 -159.235 1044.32 -147.103M1044.32 346.686L1100.01 237.418M1044.32 346.686C1015.1 331.798 991.331 308.041 976.44 278.824M976.44 278.824L1085.74 223.148M976.44 278.824C964.304 255.01 961.377 232.986 960.335 220.229C959.487 209.857 959.5 198.64 959.51 191.961C959.51 191.366 959.51 190.808 959.51 190.291V9.29089C959.51 8.77294 959.51 8.21557 959.51 7.62248C959.5 0.942173 959.487 -10.2741 960.335 -20.6472C961.377 -33.4034 964.304 -55.4296 976.44 -79.2408M976.44 -79.2408L1088.05 -22.3871M976.44 -79.2408C991.331 -108.46 1015.1 -132.215 1044.32 -147.103M1044.32 -147.103L1099.51 -38.8254" stroke="url(#paint19_linear_1067_10)" stroke-opacity="0.2" stroke-width="75" />
							<path d="M891.033 98.1211H1101.48C1118.09 98.1211 1131.55 111.577 1131.55 128.176V345.243C1131.55 361.842 1118.09 375.298 1101.48 375.298H891.033C874.429 375.298 860.968 361.842 860.968 345.243V128.176C860.968 111.577 874.429 98.1211 891.033 98.1211Z" fill="url(#paint20_linear_1067_10)" />
							<path d="M891.03 -27.1094H1101.48C1187.27 -27.1094 1256.81 42.4145 1256.81 128.177V345.243C1256.81 431.005 1187.27 500.529 1101.48 500.529H891.03C805.243 500.529 735.698 431.005 735.698 345.243V128.177C735.698 42.4145 805.243 -27.1094 891.03 -27.1094Z" stroke="url(#paint21_linear_1067_10)" stroke-opacity="0.2" stroke-width="75" />
							<path d="M667.22 211.664H877.67C894.274 211.664 907.734 225.12 907.734 241.719V458.786C907.734 475.385 894.274 488.841 877.67 488.841H667.22C650.616 488.841 637.156 475.385 637.156 458.786V241.719C637.156 225.12 650.616 211.664 667.22 211.664Z" fill="url(#paint22_linear_1067_10)" />
							<path d="M667.226 86.4326H877.676C963.463 86.4326 1033.01 155.957 1033.01 241.719V458.785C1033.01 544.547 963.463 614.071 877.676 614.071H667.226C581.438 614.071 511.893 544.547 511.893 458.785V241.719C511.893 155.957 581.438 86.4326 667.226 86.4326Z" stroke="url(#paint23_linear_1067_10)" stroke-opacity="0.2" stroke-width="75" />
							<path d="M443.408 348.582H653.858C670.462 348.582 683.922 362.038 683.922 378.637V595.704C683.922 612.303 670.462 625.759 653.858 625.759H443.408C426.804 625.759 413.343 612.303 413.343 595.704V378.637C413.343 362.038 426.804 348.582 443.408 348.582Z" fill="url(#paint24_linear_1067_10)" />
							<path d="M443.413 223.352H653.863C739.651 223.352 809.195 292.875 809.195 378.638V595.704C809.195 681.466 739.651 750.99 653.863 750.99H443.413C357.626 750.99 288.081 681.466 288.081 595.704V378.638C288.081 292.875 357.626 223.352 443.413 223.352Z" stroke="url(#paint25_linear_1067_10)" stroke-opacity="0.2" stroke-width="75" />
						</g>
					</g>
					<g opacity="0.2">
						<g opacity="0.9">
							<path d="M-68.0513 639.345C-44.2333 627.212 -22.2005 624.287 -9.44058 623.245C0.935604 622.397 12.1556 622.41 18.8376 622.42C19.4308 622.42 19.9883 622.42 20.5065 622.42H201.56C202.078 622.42 202.636 622.42 203.229 622.42C209.911 622.41 221.131 622.397 231.507 623.245C244.267 624.287 266.3 627.212 290.12 639.345C319.345 654.232 343.11 677.989 358.001 707.206C370.137 731.02 373.064 753.044 374.106 765.801C374.954 776.173 374.941 787.391 374.931 794.07C374.931 794.664 374.931 795.222 374.931 795.739V1004.79V1130.02H249.663H-27.5964H-152.864V1004.79V795.739C-152.864 795.222 -152.865 794.664 -152.866 794.07C-152.873 787.391 -152.886 776.173 -152.038 765.801C-150.996 753.044 -148.07 731.02 -135.934 707.206M-68.0513 639.345L-14.1597 745.083M-68.0513 639.345C-97.279 654.232 -121.042 677.989 -135.934 707.206M-135.934 707.206L-24.3197 764.061" stroke="url(#paint26_linear_1067_10)" stroke-opacity="0.2" stroke-width="75" />
							<path d="M389.961 764.348V553.961C389.961 537.362 376.501 523.905 359.897 523.905H142.766C126.162 523.905 112.701 537.362 112.701 553.961V764.348C112.701 780.947 126.162 794.403 142.766 794.403H359.897C376.501 794.403 389.961 780.947 389.961 764.348Z" fill="url(#paint27_linear_1067_10)" />
							<path d="M515.234 764.348V553.961C515.234 468.199 445.69 398.675 359.902 398.675H142.771C56.9837 398.675 -12.5609 468.199 -12.5609 553.961V764.348C-12.5609 850.11 56.9837 919.634 142.771 919.634H359.902C445.69 919.634 515.234 850.11 515.234 764.348Z" stroke="url(#paint28_linear_1067_10)" stroke-opacity="0.2" stroke-width="75" />
							<path d="M530.266 540.603V330.216C530.266 313.616 516.805 300.16 500.201 300.16H283.07C266.466 300.16 253.006 313.616 253.006 330.216V540.603C253.006 557.202 266.466 570.658 283.07 570.658H500.201C516.805 570.658 530.266 557.202 530.266 540.603Z" fill="url(#paint29_linear_1067_10)" />
							<path d="M655.531 540.603V330.216C655.531 244.454 585.987 174.93 500.199 174.93L283.068 174.93C197.281 174.93 127.736 244.454 127.736 330.216V540.603C127.736 626.365 197.281 695.889 283.068 695.889H500.199C585.987 695.889 655.531 626.365 655.531 540.603Z" stroke="url(#paint30_linear_1067_10)" stroke-opacity="0.2" stroke-width="75" />
							<path d="M670.562 320.197V109.809C670.562 93.2101 657.102 79.7539 640.498 79.7539L423.367 79.7539C406.763 79.7539 393.303 93.2101 393.303 109.809V320.197C393.303 336.796 406.763 350.252 423.367 350.252H640.498C657.102 350.252 670.562 336.796 670.562 320.197Z" fill="url(#paint31_linear_1067_10)" />
							<path d="M795.828 320.197V109.809C795.828 24.0473 726.284 -45.4766 640.496 -45.4766L423.365 -45.4766C337.577 -45.4766 268.033 24.0473 268.033 109.809V320.197C268.033 405.959 337.577 475.483 423.365 475.483H640.496C726.284 475.483 795.828 405.959 795.828 320.197Z" stroke="url(#paint32_linear_1067_10)" stroke-opacity="0.2" stroke-width="75" />
						</g>
						<g opacity="0.9">
							<path d="M345.096 -100.209C332.96 -124.02 330.034 -146.046 328.991 -158.802C328.143 -169.175 328.156 -180.392 328.166 -187.072C328.166 -187.665 328.166 -188.222 328.166 -188.74V-397.792V-523.022H453.434H730.694H855.962V-397.792V-188.74C855.962 -188.222 855.962 -187.665 855.962 -187.072C855.972 -180.392 855.985 -169.175 855.136 -158.802C854.094 -146.046 851.168 -124.019 839.032 -100.208M345.096 -100.209L454.396 -155.884M345.096 -100.209C359.988 -70.99 383.752 -47.2339 412.978 -32.3462M412.978 -32.3462L468.67 -141.615M412.978 -32.3462C436.799 -20.2138 458.829 -17.2887 471.59 -16.2465C481.965 -15.3989 493.186 -15.412 499.867 -15.4196C500.461 -15.4203 501.019 -15.421 501.537 -15.421H682.591C683.109 -15.421 683.667 -15.4203 684.261 -15.4196C690.942 -15.412 702.163 -15.3989 712.538 -16.2465C725.299 -17.2884 747.329 -20.2138 771.15 -32.3462M771.15 -32.3462L714.279 -143.927M771.15 -32.3462C800.376 -47.2339 824.14 -70.9896 839.032 -100.208M839.032 -100.208L730.72 -155.379" stroke="url(#paint33_linear_1067_10)" stroke-opacity="0.2" stroke-width="75" />
							<path d="M593.734 53.0385V-157.349C593.734 -173.948 580.274 -187.404 563.67 -187.404L346.539 -187.404C329.935 -187.404 316.475 -173.948 316.475 -157.349V53.0385C316.475 69.6376 329.935 83.0939 346.539 83.0939H563.67C580.274 83.0939 593.734 69.6376 593.734 53.0385Z" fill="url(#paint34_linear_1067_10)" />
							<path d="M719 53.0387V-157.349C719 -243.111 649.455 -312.635 563.668 -312.635H346.537C260.749 -312.635 191.205 -243.111 191.205 -157.349V53.0387C191.205 138.801 260.749 208.325 346.537 208.325H563.668C649.455 208.325 719 138.801 719 53.0387Z" stroke="url(#paint35_linear_1067_10)" stroke-opacity="0.2" stroke-width="75" />
							<path d="M480.156 276.784V66.3962C480.156 49.7971 466.696 36.3408 450.092 36.3408L232.961 36.3408C216.357 36.3408 202.897 49.7971 202.897 66.3962V276.784C202.897 293.383 216.357 306.839 232.961 306.839H450.092C466.696 306.839 480.156 293.383 480.156 276.784Z" fill="url(#paint36_linear_1067_10)" />
							<path d="M605.43 276.784V66.3963C605.43 -19.3657 535.885 -88.8896 450.098 -88.8896L232.967 -88.8896C147.179 -88.8896 77.6345 -19.3657 77.6345 66.3963V276.784C77.6345 362.546 147.179 432.07 232.967 432.07H450.098C535.885 432.07 605.43 362.546 605.43 276.784Z" stroke="url(#paint37_linear_1067_10)" stroke-opacity="0.2" stroke-width="75" />
							<path d="M343.203 500.529V290.141C343.203 273.542 329.743 260.086 313.139 260.086H96.0079C79.4038 260.086 65.9436 273.542 65.9436 290.141V500.529C65.9436 517.128 79.4038 530.584 96.0079 530.584H313.139C329.743 530.584 343.203 517.128 343.203 500.529Z" fill="url(#paint38_linear_1067_10)" />
							<path d="M468.469 500.529V290.141C468.469 204.379 398.924 134.855 313.137 134.855L96.0057 134.855C10.2181 134.855 -59.3265 204.379 -59.3265 290.141V500.529C-59.3265 586.291 10.2181 655.815 96.0057 655.815H313.137C398.924 655.815 468.469 586.291 468.469 500.529Z" stroke="url(#paint39_linear_1067_10)" stroke-opacity="0.2" stroke-width="75" />
						</g>
					</g>
					<g opacity="0.2">
						<g opacity="0.9">
							<path d="M630.111 -32.3462C653.931 -20.2138 675.962 -17.2884 688.722 -16.2465C699.098 -15.3989 710.319 -15.412 717 -15.4196C717.594 -15.4203 718.152 -15.421 718.67 -15.421H899.724C900.241 -15.421 900.799 -15.4203 901.394 -15.4196C908.075 -15.412 919.296 -15.3989 929.671 -16.2465C942.432 -17.2884 964.462 -20.2138 988.283 -32.3462C1017.51 -47.2339 1041.27 -70.9896 1056.16 -100.208C1068.3 -124.02 1071.23 -146.046 1072.27 -158.802C1073.12 -169.175 1073.1 -180.392 1073.09 -187.072C1073.09 -187.665 1073.09 -188.222 1073.09 -188.74V-397.792V-523.022H947.827H670.567H545.299V-397.792V-188.74C545.299 -188.222 545.299 -187.665 545.299 -187.072C545.289 -180.392 545.276 -169.175 546.124 -158.802C547.166 -146.046 550.093 -124.02 562.229 -100.208M630.111 -32.3462L684.002 -138.083M630.111 -32.3462C600.885 -47.2339 577.121 -70.9896 562.229 -100.208M562.229 -100.208L673.844 -157.062" stroke="url(#paint40_linear_1067_10)" stroke-opacity="0.2" stroke-width="75" />
							<path d="M1088.12 -157.349L1088.12 53.0384C1088.12 69.6375 1074.66 83.0938 1058.06 83.0938L840.93 83.0938C824.326 83.0938 810.865 69.6375 810.865 53.0384L810.865 -157.349C810.865 -173.948 824.326 -187.404 840.93 -187.404L1058.06 -187.404C1074.66 -187.404 1088.12 -173.948 1088.12 -157.349Z" fill="url(#paint41_linear_1067_10)" />
							<path d="M1213.39 -157.349L1213.39 53.0382C1213.39 138.8 1143.85 208.324 1058.06 208.324L840.928 208.324C755.14 208.324 685.595 138.8 685.595 53.0383L685.595 -157.349C685.595 -243.111 755.14 -312.635 840.928 -312.635L1058.06 -312.635C1143.85 -312.635 1213.39 -243.111 1213.39 -157.349Z" stroke="url(#paint42_linear_1067_10)" stroke-opacity="0.2" stroke-width="75" />
							<path d="M1228.43 66.3961L1228.43 276.784C1228.43 293.383 1214.97 306.839 1198.37 306.839L981.234 306.839C964.63 306.839 951.17 293.383 951.17 276.784L951.17 66.3961C951.17 49.7969 964.63 36.3407 981.234 36.3407L1198.37 36.3407C1214.97 36.3407 1228.43 49.7969 1228.43 66.3961Z" fill="url(#paint43_linear_1067_10)" />
							<path d="M1353.7 66.3969L1353.7 276.784C1353.7 362.546 1284.15 432.07 1198.36 432.07L981.232 432.07C895.445 432.07 825.9 362.546 825.9 276.784L825.9 66.3969C825.9 -19.3652 895.445 -88.8891 981.232 -88.8891L1198.36 -88.8891C1284.15 -88.8891 1353.7 -19.3652 1353.7 66.3969Z" stroke="url(#paint44_linear_1067_10)" stroke-opacity="0.2" stroke-width="75" />
							<path d="M1368.73 286.802L1368.73 497.19C1368.73 513.789 1355.27 527.245 1338.66 527.245L1121.53 527.245C1104.93 527.245 1091.47 513.789 1091.47 497.19L1091.47 286.802C1091.47 270.203 1104.93 256.747 1121.53 256.747L1338.66 256.747C1355.27 256.747 1368.73 270.203 1368.73 286.802Z" fill="url(#paint45_linear_1067_10)" />
							<path d="M1493.99 286.802L1493.99 497.19C1493.99 582.952 1424.45 652.476 1338.66 652.476L1121.53 652.476C1035.74 652.476 966.197 582.952 966.197 497.19L966.197 286.802C966.197 201.04 1035.74 131.516 1121.53 131.516L1338.66 131.516C1424.45 131.516 1493.99 201.04 1493.99 286.802Z" stroke="url(#paint46_linear_1067_10)" stroke-opacity="0.2" stroke-width="75" />
						</g>
						<g opacity="0.9">
							<path d="M1043.26 707.206C1031.12 731.02 1028.2 753.044 1027.16 765.801C1026.31 776.173 1026.32 787.391 1026.33 794.07C1026.33 794.664 1026.33 795.222 1026.33 795.739V1004.79V1130.02H1151.6H1428.86H1554.13V1004.79V795.739C1554.13 795.222 1554.13 794.664 1554.13 794.07C1554.14 787.391 1554.15 776.173 1553.3 765.801C1552.26 753.044 1549.33 731.02 1537.2 707.206M1043.26 707.206L1152.56 762.882M1043.26 707.206C1058.15 677.989 1081.92 654.232 1111.14 639.345M1111.14 639.345L1166.83 748.613M1111.14 639.345C1134.96 627.212 1156.99 624.287 1169.75 623.245C1180.13 622.397 1191.35 622.41 1198.03 622.42C1198.63 622.42 1199.18 622.42 1199.7 622.42H1380.75C1381.27 622.42 1381.83 622.42 1382.43 622.42C1389.11 622.41 1400.33 622.397 1410.7 623.245C1423.46 624.287 1445.49 627.212 1469.31 639.345M1469.31 639.345L1412.44 750.927M1469.31 639.345C1498.54 654.232 1522.3 677.989 1537.2 707.206M1537.2 707.206L1428.88 762.378" stroke="url(#paint47_linear_1067_10)" stroke-opacity="0.2" stroke-width="75" />
							<path d="M1291.9 553.961L1291.9 764.349C1291.9 780.948 1278.44 794.404 1261.83 794.404L1044.7 794.404C1028.1 794.404 1014.64 780.948 1014.64 764.349L1014.64 553.961C1014.64 537.362 1028.1 523.906 1044.7 523.906L1261.83 523.906C1278.44 523.906 1291.9 537.362 1291.9 553.961Z" fill="url(#paint48_linear_1067_10)" />
							<path d="M1417.16 553.961L1417.16 764.349C1417.16 850.111 1347.62 919.635 1261.83 919.635L1044.7 919.635C958.913 919.635 889.369 850.111 889.369 764.349L889.369 553.961C889.369 468.199 958.913 398.675 1044.7 398.675L1261.83 398.675C1347.62 398.675 1417.16 468.199 1417.16 553.961Z" stroke="url(#paint49_linear_1067_10)" stroke-opacity="0.2" stroke-width="75" />
							<path d="M1178.32 330.216L1178.32 540.604C1178.32 557.203 1164.86 570.659 1148.26 570.659L931.125 570.659C914.521 570.659 901.061 557.203 901.061 540.604L901.061 330.216C901.061 313.617 914.521 300.161 931.125 300.161L1148.26 300.161C1164.86 300.161 1178.32 313.617 1178.32 330.216Z" fill="url(#paint50_linear_1067_10)" />
							<path d="M1303.59 330.216L1303.59 540.604C1303.59 626.366 1234.05 695.89 1148.26 695.89L931.131 695.89C845.343 695.89 775.799 626.366 775.799 540.604L775.799 330.216C775.799 244.454 845.343 174.93 931.131 174.93L1148.26 174.93C1234.05 174.93 1303.59 244.454 1303.59 330.216Z" stroke="url(#paint51_linear_1067_10)" stroke-opacity="0.2" stroke-width="75" />
							<path d="M1041.37 106.47L1041.37 316.858C1041.37 333.457 1027.91 346.913 1011.3 346.913L794.172 346.913C777.568 346.913 764.108 333.457 764.108 316.858L764.108 106.47C764.108 89.8712 777.568 76.4149 794.172 76.4149L1011.3 76.4149C1027.91 76.4149 1041.37 89.8712 1041.37 106.47Z" fill="url(#paint52_linear_1067_10)" />
							<path d="M1166.63 106.47L1166.63 316.858C1166.63 402.62 1097.09 472.144 1011.3 472.144L794.17 472.144C708.382 472.144 638.838 402.62 638.838 316.858L638.838 106.47C638.838 20.7081 708.382 -48.8158 794.17 -48.8158L1011.3 -48.8159C1097.09 -48.8159 1166.63 20.708 1166.63 106.47Z" stroke="url(#paint53_linear_1067_10)" stroke-opacity="0.2" stroke-width="75" />
						</g>
					</g>
					<g opacity="0.8">
						<g opacity="0.9">
							<path d="M1084.78 453.442C1084.78 436.611 1084.78 428.192 1088.06 421.764C1090.94 416.11 1095.54 411.512 1101.2 408.63C1107.63 405.354 1116.05 405.354 1132.88 405.354H1342V682.531H1132.88C1116.05 682.531 1107.63 682.531 1101.2 679.255C1095.54 676.373 1090.94 671.774 1088.06 666.12C1084.78 659.692 1084.78 651.273 1084.78 634.442V453.442Z" fill="url(#paint54_linear_1067_10)" />
							<path d="M1080.62 669.91C1078.28 665.321 1077.32 660.389 1076.87 654.862C1076.43 649.509 1076.43 642.91 1076.43 634.795V634.441V453.441V453.087C1076.43 444.972 1076.43 438.373 1076.87 433.02C1077.32 427.493 1078.28 422.561 1080.62 417.973C1084.3 410.746 1090.18 404.872 1097.4 401.188C1101.99 398.851 1106.93 397.892 1112.46 397.441C1117.81 397.004 1124.41 397.004 1132.53 397.004H1132.88H1342H1350.35V405.353V682.53V690.878H1342H1132.88H1132.53C1124.41 690.878 1117.81 690.878 1112.46 690.441C1106.93 689.99 1101.99 689.032 1097.4 686.694C1090.18 683.011 1084.3 677.136 1080.62 669.91ZM1080.62 669.91L1088.03 666.133" stroke="url(#paint55_linear_1067_10)" stroke-opacity="0.2" stroke-width="5" />
							<path d="M1101.48 265.095H891.033C874.429 265.095 860.969 278.551 860.969 295.15V512.217C860.969 528.816 874.429 542.272 891.033 542.272H1101.48C1118.09 542.272 1131.55 528.816 1131.55 512.217V295.15C1131.55 278.551 1118.09 265.095 1101.48 265.095Z" fill="url(#paint56_linear_1067_10)" fill-opacity="0.2" />
							<path d="M1101.48 256.746H891.033C869.816 256.746 852.617 273.94 852.617 295.15V512.217C852.617 533.427 869.816 550.621 891.033 550.621H1101.48C1122.7 550.621 1139.9 533.427 1139.9 512.217V295.15C1139.9 273.94 1122.7 256.746 1101.48 256.746Z" stroke="url(#paint57_linear_1067_10)" stroke-opacity="0.2" stroke-width="5" />
							<path d="M877.671 124.837H667.221C650.616 124.837 637.156 138.293 637.156 154.892V371.959C637.156 388.558 650.616 402.014 667.221 402.014H877.671C894.275 402.014 907.735 388.558 907.735 371.959V154.892C907.735 138.293 894.275 124.837 877.671 124.837Z" fill="url(#paint58_linear_1067_10)" fill-opacity="0.5" />
							<path d="M877.67 116.488H667.22C646.004 116.488 628.805 133.682 628.805 154.892V371.959C628.805 393.169 646.004 410.363 667.22 410.363H877.67C898.886 410.363 916.086 393.169 916.086 371.959V154.892C916.086 133.682 898.886 116.488 877.67 116.488Z" stroke="url(#paint59_linear_1067_10)" stroke-opacity="0.2" stroke-width="5" />
							<path d="M657.202 -15.4219H446.752C430.148 -15.4219 416.688 -1.96564 416.688 14.6335V231.7C416.688 248.299 430.148 261.755 446.752 261.755H657.202C673.806 261.755 687.266 248.299 687.266 231.7V14.6335C687.266 -1.96564 673.806 -15.4219 657.202 -15.4219Z" fill="url(#paint60_linear_1067_10)" />
							<path d="M657.201 -23.7705H446.751C425.535 -23.7705 408.336 -6.57642 408.336 14.6336V231.7C408.336 252.91 425.535 270.104 446.751 270.104H657.201C678.418 270.104 695.617 252.91 695.617 231.7V14.6336C695.617 -6.57642 678.418 -23.7705 657.201 -23.7705Z" stroke="url(#paint61_linear_1067_10)" stroke-opacity="0.2" stroke-width="5" />
						</g>
						<g opacity="0.9">
							<path d="M-61 -75.5322H148.114C164.951 -75.5322 173.37 -75.5322 179.801 -72.2565C185.458 -69.3749 190.057 -64.7771 192.94 -59.1217C196.217 -52.6925 196.217 -44.2763 196.217 -27.4437V153.556C196.217 170.389 196.217 178.805 192.94 185.235C190.057 190.888 185.458 195.487 179.801 198.369C173.37 201.645 164.951 201.645 148.114 201.645H-61V-75.5322Z" fill="url(#paint62_linear_1067_10)" />
							<path d="M183.592 -79.6951C190.821 -76.013 196.697 -70.1382 200.381 -62.9119C202.719 -58.3241 203.678 -53.3917 204.13 -47.8639C204.568 -42.5107 204.567 -35.9132 204.567 -27.7969V-27.4436V153.556V153.91C204.567 162.026 204.568 168.623 204.13 173.977C203.678 179.505 202.719 184.437 200.381 189.025C196.697 196.252 190.821 202.126 183.592 205.809C179.003 208.147 174.069 209.105 168.54 209.556C163.185 209.994 156.586 209.994 148.467 209.994H148.113H-61.0004H-69.3516V201.645V-75.5322V-83.8809H-61.0004H148.113H148.467C156.586 -83.8809 163.185 -83.8812 168.54 -83.4437C174.069 -82.9919 179.003 -82.0325 183.592 -79.6951ZM183.592 -79.6951L179.815 -72.2842" stroke="url(#paint63_linear_1067_10)" stroke-opacity="0.2" stroke-width="5" />
							<path d="M389.967 61.3867H179.517C162.913 61.3867 149.453 74.843 149.453 91.4421V308.508C149.453 325.108 162.913 338.564 179.517 338.564H389.967C406.571 338.564 420.032 325.108 420.032 308.508V91.4421C420.032 74.843 406.571 61.3867 389.967 61.3867Z" fill="url(#paint64_linear_1067_10)" fill-opacity="0.2" />
							<path d="M389.967 53.0381H179.517C158.301 53.0381 141.102 70.2322 141.102 91.4421V308.509C141.102 329.719 158.301 346.913 179.517 346.913H389.967C411.183 346.913 428.383 329.719 428.383 308.509V91.4421C428.383 70.2322 411.183 53.0381 389.967 53.0381Z" stroke="url(#paint65_linear_1067_10)" stroke-opacity="0.2" stroke-width="5" />
							<path d="M613.772 174.929H403.322C386.718 174.929 373.258 188.385 373.258 204.984V422.05C373.258 438.65 386.718 452.106 403.322 452.106H613.772C630.376 452.106 643.836 438.65 643.836 422.05V204.984C643.836 188.385 630.376 174.929 613.772 174.929Z" fill="url(#paint66_linear_1067_10)" fill-opacity="0.5" />
							<path d="M613.78 166.58H403.33C382.113 166.58 364.914 183.774 364.914 204.984V422.051C364.914 443.261 382.113 460.455 403.33 460.455H613.78C634.996 460.455 652.195 443.261 652.195 422.051V204.984C652.195 183.774 634.996 166.58 613.78 166.58Z" stroke="url(#paint67_linear_1067_10)" stroke-opacity="0.2" stroke-width="5" />
							<path d="M837.585 311.848H627.135C610.531 311.848 597.07 325.304 597.07 341.903V558.969C597.07 575.569 610.531 589.025 627.135 589.025H837.585C854.189 589.025 867.649 575.569 867.649 558.969V341.903C867.649 325.304 854.189 311.848 837.585 311.848Z" fill="url(#paint68_linear_1067_10)" />
							<path d="M837.584 303.499H627.134C605.918 303.499 588.719 320.693 588.719 341.903V558.97C588.719 580.179 605.918 597.374 627.134 597.374H837.584C858.801 597.374 876 580.179 876 558.97V341.903C876 320.693 858.801 303.499 837.584 303.499Z" stroke="url(#paint69_linear_1067_10)" stroke-opacity="0.2" stroke-width="5" />
						</g>
					</g>
				</g>
			</g>
			<mask id="mask7_1067_10" style="mask-type:luminance" maskUnits="userSpaceOnUse" x="144" y="-351" width="1867" height="1883">
				<path d="M963.945 1531.28L2010.16 423.079L1190.22 -351L144.004 757.197L963.945 1531.28Z" fill="white" />
			</mask>
			<g mask="url(#mask7_1067_10)">
				<mask id="mask8_1067_10" style="mask-type:luminance" maskUnits="userSpaceOnUse" x="144" y="-351" width="1867" height="1883">
					<path d="M963.945 1531.28L2010.16 423.079L1190.22 -351L144.004 757.197L963.945 1531.28Z" fill="url(#paint70_linear_1067_10)" />
				</mask>
				<g mask="url(#mask8_1067_10)">
					<path d="M975.972 1926.84L1624.27 -710.771L1246.95 -888.443L598.646 1749.16L975.972 1926.84Z" fill="url(#paint71_radial_1067_10)" />
					<path d="M636.66 1764.97L2000.76 -443.055L1840.17 -562.14L476.075 1645.89L636.66 1764.97Z" fill="url(#paint72_linear_1067_10)" />
					<path d="M561.708 1807.18L1724.23 -541.699L1558.15 -650.872L395.627 1698L561.708 1807.18Z" fill="url(#paint73_radial_1067_10)" />
					<path d="M463.77 1661.15L2109.23 -319.773L1784.91 -604.174L139.45 1376.75L463.77 1661.15Z" fill="url(#paint74_radial_1067_10)" fill-opacity="0.5" />
					<path d="M172.899 1403.65L2399.39 39.8936L2277.44 -117.623L50.9469 1246.13L172.899 1403.65Z" fill="url(#paint75_linear_1067_10)" fill-opacity="0.5" />
					<path d="M79.8162 1412.19L2150.04 -142.043L2018.74 -293.212L-51.4819 1261.02L79.8162 1412.19Z" fill="url(#paint76_radial_1067_10)" fill-opacity="0.5" />
					<path d="M787.203 1850.86L1808.72 -586.837L1445.07 -806.075L423.553 1631.62L787.203 1850.86Z" fill="url(#paint77_radial_1067_10)" />
					<path d="M460.469 1651.7L2159.37 -281.597L2010.46 -416.474L311.563 1516.82L460.469 1651.7Z" fill="url(#paint78_linear_1067_10)" />
					<path d="M377.782 1682.26L1888.61 -412.084L1732.72 -538.201L221.895 1556.14L377.782 1682.26Z" fill="url(#paint79_radial_1067_10)" />
					<path d="M559.733 1726.13L2022.1 -406.857L1683.82 -672.773L221.449 1460.22L559.733 1726.13Z" fill="url(#paint80_radial_1067_10)" />
					<path d="M256.164 1485.17L2332.56 -61.9375L2201.61 -213.364L125.21 1333.74L256.164 1485.17Z" fill="url(#paint81_linear_1067_10)" />
					<path d="M165.758 1500.54L2075.2 -229.047L1935.57 -373.346L26.1339 1356.24L165.758 1500.54Z" fill="url(#paint82_radial_1067_10)" />
					<path d="M106.752 1344.41L2407.07 78.8623L2155.74 -265.59L-144.581 999.959L106.752 1344.41Z" fill="url(#paint83_radial_1067_10)" fill-opacity="0.5" />
					<path d="M-117.932 1033.33L2600.42 479.625L2521.06 305.594L-197.296 859.304L-117.932 1033.33Z" fill="url(#paint84_linear_1067_10)" fill-opacity="0.5" />
				</g>
			</g>
		</g>
	</g>
	<defs>
		<filter id="filter0_f_1067_10" x="-71.3" y="-159.3" width="1423.6" height="925.6" filterUnits="userSpaceOnUse" color-interpolation-filters="sRGB">
			<feFlood flood-opacity="0" result="BackgroundImageFix" />
			<feBlend mode="normal" in="SourceGraphic" in2="BackgroundImageFix" result="shape" />
			<feGaussianBlur stdDeviation="5.15" result="effect1_foregroundBlur_1067_10" />
		</filter>
		<linearGradient id="paint0_linear_1067_10" x1="1204.74" y1="638.021" x2="243.226" y2="-177.136" gradientUnits="userSpaceOnUse">
			<stop stop-color="#B9A32A" />
			<stop offset="0.268039" stop-color="#D1B729" />
			<stop offset="1" stop-color="#737373" stop-opacity="0" />
		</linearGradient>
		<linearGradient id="paint1_linear_1067_10" x1="1619.4" y1="854.891" x2="929.331" y2="440.98" gradientUnits="userSpaceOnUse">
			<stop stop-color="#B9A32A" />
			<stop offset="0.268039" stop-color="#D1B729" />
			<stop offset="0.456178" stop-color="#B9A63C" stop-opacity="0.742965" />
			<stop offset="0.510046" stop-color="#B2A142" stop-opacity="0.669371" />
			<stop offset="1" stop-color="#737373" stop-opacity="0" />
		</linearGradient>
		<linearGradient id="paint2_linear_1067_10" x1="917.303" y1="161.953" x2="101.82" y2="1123.27" gradientUnits="userSpaceOnUse">
			<stop stop-color="#B9A32A" />
			<stop offset="0.268039" stop-color="#D1B729" />
			<stop offset="1" stop-color="#737373" stop-opacity="0" />
		</linearGradient>
		<linearGradient id="paint3_linear_1067_10" x1="1134.1" y1="-252.839" x2="719.953" y2="437.222" gradientUnits="userSpaceOnUse">
			<stop stop-color="#B9A32A" />
			<stop offset="0.268039" stop-color="#D1B729" />
			<stop offset="0.456178" stop-color="#B9A63C" stop-opacity="0.742965" />
			<stop offset="0.510046" stop-color="#B2A142" stop-opacity="0.669371" />
			<stop offset="1" stop-color="#737373" stop-opacity="0" />
		</linearGradient>
		<linearGradient id="paint4_linear_1067_10" x1="879.609" y1="213.802" x2="1841.12" y2="1028.96" gradientUnits="userSpaceOnUse">
			<stop stop-color="#B9A32A" />
			<stop offset="0.268039" stop-color="#D1B729" />
			<stop offset="1" stop-color="#737373" stop-opacity="0" />
		</linearGradient>
		<linearGradient id="paint5_linear_1067_10" x1="464.937" y1="-3.06576" x2="1155.01" y2="410.843" gradientUnits="userSpaceOnUse">
			<stop stop-color="#B9A32A" />
			<stop offset="0.268039" stop-color="#D1B729" />
			<stop offset="0.456178" stop-color="#B9A63C" stop-opacity="0.742965" />
			<stop offset="0.510046" stop-color="#B2A142" stop-opacity="0.669371" />
			<stop offset="1" stop-color="#737373" stop-opacity="0" />
		</linearGradient>
		<linearGradient id="paint6_linear_1067_10" x1="1162.33" y1="487.188" x2="1977.82" y2="-474.133" gradientUnits="userSpaceOnUse">
			<stop stop-color="#B9A32A" />
			<stop offset="0.268039" stop-color="#D1B729" />
			<stop offset="1" stop-color="#737373" stop-opacity="0" />
		</linearGradient>
		<linearGradient id="paint7_linear_1067_10" x1="945.528" y1="901.98" x2="1359.68" y2="211.917" gradientUnits="userSpaceOnUse">
			<stop stop-color="#B9A32A" />
			<stop offset="0.268039" stop-color="#D1B729" />
			<stop offset="0.456178" stop-color="#B9A63C" stop-opacity="0.742965" />
			<stop offset="0.510046" stop-color="#B2A142" stop-opacity="0.669371" />
			<stop offset="1" stop-color="#737373" stop-opacity="0" />
		</linearGradient>
		<linearGradient id="paint8_linear_1067_10" x1="2.5" y1="304" x2="1276.5" y2="304" gradientUnits="userSpaceOnUse">
			<stop stop-color="#C9C9C9" />
			<stop offset="0.5" stop-color="#C9C9C9" />
			<stop offset="1" stop-color="#C9C9C9" stop-opacity="0" />
		</linearGradient>
		<linearGradient id="paint9_linear_1067_10" x1="1222.29" y1="-149" x2="58.9749" y2="756.335" gradientUnits="userSpaceOnUse">
			<stop stop-color="#FFD700" />
			<stop offset="0.240073" stop-color="#3300FF" stop-opacity="0.5" />
			<stop offset="0.649501" stop-color="#0000FF" />
			<stop offset="1" stop-color="#FF0000" stop-opacity="0.75" />
		</linearGradient>
		<linearGradient id="paint10_linear_1067_10" x1="207.42" y1="631.073" x2="-61.2569" y2="609.407" gradientUnits="userSpaceOnUse">
			<stop stop-color="#0F58C6" stop-opacity="0.4" />
			<stop offset="1" stop-color="#DE2828" stop-opacity="0.7" />
		</linearGradient>
		<linearGradient id="paint11_linear_1067_10" x1="67.6106" y1="442.087" x2="67.6106" y2="719.264" gradientUnits="userSpaceOnUse">
			<stop stop-color="#FF0000" stop-opacity="0.5" />
			<stop offset="1" stop-color="#7FFF00" stop-opacity="0.5" />
		</linearGradient>
		<linearGradient id="paint12_linear_1067_10" x1="431.816" y1="490.813" x2="149.377" y2="466.855" gradientUnits="userSpaceOnUse">
			<stop stop-color="#0F58C6" stop-opacity="0.4" />
			<stop offset="1" stop-color="#DE2828" stop-opacity="0.7" />
		</linearGradient>
		<linearGradient id="paint13_linear_1067_10" x1="535.275" y1="301.829" x2="535.275" y2="579.006" gradientUnits="userSpaceOnUse">
			<stop stop-color="#FF0000" stop-opacity="0.5" />
			<stop offset="1" stop-color="#7FFF00" stop-opacity="0.5" />
		</linearGradient>
		<linearGradient id="paint14_linear_1067_10" x1="655.629" y1="350.556" x2="373.19" y2="326.597" gradientUnits="userSpaceOnUse">
			<stop stop-color="#0F58C6" stop-opacity="0.4" />
			<stop offset="1" stop-color="#DE2828" stop-opacity="0.7" />
		</linearGradient>
		<linearGradient id="paint15_linear_1067_10" x1="759.088" y1="161.57" x2="759.088" y2="438.748" gradientUnits="userSpaceOnUse">
			<stop stop-color="#FF0000" stop-opacity="0.5" />
			<stop offset="1" stop-color="#7FFF00" stop-opacity="0.5" />
		</linearGradient>
		<linearGradient id="paint16_linear_1067_10" x1="876.097" y1="210.297" x2="593.658" y2="186.338" gradientUnits="userSpaceOnUse">
			<stop stop-color="#0F58C6" stop-opacity="0.4" />
			<stop offset="1" stop-color="#DE2828" stop-opacity="0.7" />
		</linearGradient>
		<linearGradient id="paint17_linear_1067_10" x1="979.557" y1="21.3127" x2="979.557" y2="298.49" gradientUnits="userSpaceOnUse">
			<stop stop-color="#FF0000" stop-opacity="0.5" />
			<stop offset="1" stop-color="#7FFF00" stop-opacity="0.5" />
		</linearGradient>
		<linearGradient id="paint18_linear_1067_10" x1="1342.45" y1="62.1838" x2="1086.12" y2="62.1838" gradientUnits="userSpaceOnUse">
			<stop stop-color="#45F442" stop-opacity="0.5" />
			<stop offset="1" stop-color="#C90000" stop-opacity="0.7" />
		</linearGradient>
		<linearGradient id="paint19_linear_1067_10" x1="1213.39" y1="-38.7977" x2="1213.39" y2="238.379" gradientUnits="userSpaceOnUse">
			<stop stop-color="#FF0000" stop-opacity="0.5" />
			<stop offset="1" stop-color="#7FFF00" stop-opacity="0.5" />
		</linearGradient>
		<linearGradient id="paint20_linear_1067_10" x1="1132.02" y1="199.103" x2="862.382" y2="199.103" gradientUnits="userSpaceOnUse">
			<stop stop-color="#45F442" stop-opacity="0.5" />
			<stop offset="1" stop-color="#C90000" stop-opacity="0.7" />
		</linearGradient>
		<linearGradient id="paint21_linear_1067_10" x1="1246.79" y1="98.1213" x2="1246.79" y2="375.298" gradientUnits="userSpaceOnUse">
			<stop stop-color="#FF0000" stop-opacity="0.5" />
			<stop offset="1" stop-color="#7FFF00" stop-opacity="0.5" />
		</linearGradient>
		<linearGradient id="paint22_linear_1067_10" x1="908.206" y1="312.646" x2="638.57" y2="312.646" gradientUnits="userSpaceOnUse">
			<stop stop-color="#45F442" stop-opacity="0.5" />
			<stop offset="1" stop-color="#C90000" stop-opacity="0.7" />
		</linearGradient>
		<linearGradient id="paint23_linear_1067_10" x1="1022.99" y1="211.663" x2="1022.99" y2="488.84" gradientUnits="userSpaceOnUse">
			<stop stop-color="#FF0000" stop-opacity="0.5" />
			<stop offset="1" stop-color="#7FFF00" stop-opacity="0.5" />
		</linearGradient>
		<linearGradient id="paint24_linear_1067_10" x1="684.393" y1="449.564" x2="414.757" y2="449.564" gradientUnits="userSpaceOnUse">
			<stop stop-color="#45F442" stop-opacity="0.5" />
			<stop offset="1" stop-color="#C90000" stop-opacity="0.7" />
		</linearGradient>
		<linearGradient id="paint25_linear_1067_10" x1="799.174" y1="348.582" x2="799.174" y2="625.759" gradientUnits="userSpaceOnUse">
			<stop stop-color="#FF0000" stop-opacity="0.5" />
			<stop offset="1" stop-color="#7FFF00" stop-opacity="0.5" />
		</linearGradient>
		<linearGradient id="paint26_linear_1067_10" x1="249.663" y1="876.221" x2="-27.5964" y2="876.221" gradientUnits="userSpaceOnUse">
			<stop stop-color="#FF0000" stop-opacity="0.5" />
			<stop offset="1" stop-color="#7FFF00" stop-opacity="0.5" />
		</linearGradient>
		<linearGradient id="paint27_linear_1067_10" x1="200.92" y1="512.124" x2="224.857" y2="794.481" gradientUnits="userSpaceOnUse">
			<stop stop-color="#0F58C6" stop-opacity="0.4" />
			<stop offset="1" stop-color="#DE2828" stop-opacity="0.7" />
		</linearGradient>
		<linearGradient id="paint28_linear_1067_10" x1="389.967" y1="408.693" x2="112.707" y2="408.693" gradientUnits="userSpaceOnUse">
			<stop stop-color="#FF0000" stop-opacity="0.5" />
			<stop offset="1" stop-color="#7FFF00" stop-opacity="0.5" />
		</linearGradient>
		<linearGradient id="paint29_linear_1067_10" x1="341.225" y1="288.378" x2="365.162" y2="570.736" gradientUnits="userSpaceOnUse">
			<stop stop-color="#0F58C6" stop-opacity="0.4" />
			<stop offset="1" stop-color="#DE2828" stop-opacity="0.7" />
		</linearGradient>
		<linearGradient id="paint30_linear_1067_10" x1="530.263" y1="184.948" x2="253.004" y2="184.948" gradientUnits="userSpaceOnUse">
			<stop stop-color="#FF0000" stop-opacity="0.5" />
			<stop offset="1" stop-color="#7FFF00" stop-opacity="0.5" />
		</linearGradient>
		<linearGradient id="paint31_linear_1067_10" x1="481.522" y1="67.9722" x2="505.459" y2="350.33" gradientUnits="userSpaceOnUse">
			<stop stop-color="#0F58C6" stop-opacity="0.4" />
			<stop offset="1" stop-color="#DE2828" stop-opacity="0.7" />
		</linearGradient>
		<linearGradient id="paint32_linear_1067_10" x1="670.56" y1="-35.4581" x2="393.301" y2="-35.4581" gradientUnits="userSpaceOnUse">
			<stop stop-color="#FF0000" stop-opacity="0.5" />
			<stop offset="1" stop-color="#7FFF00" stop-opacity="0.5" />
		</linearGradient>
		<linearGradient id="paint33_linear_1067_10" x1="730.694" y1="-269.222" x2="453.434" y2="-269.222" gradientUnits="userSpaceOnUse">
			<stop stop-color="#FF0000" stop-opacity="0.5" />
			<stop offset="1" stop-color="#7FFF00" stop-opacity="0.5" />
		</linearGradient>
		<linearGradient id="paint34_linear_1067_10" x1="492.723" y1="-187.875" x2="492.723" y2="81.6813" gradientUnits="userSpaceOnUse">
			<stop stop-color="#45F442" stop-opacity="0.5" />
			<stop offset="1" stop-color="#C90000" stop-opacity="0.7" />
		</linearGradient>
		<linearGradient id="paint35_linear_1067_10" x1="593.732" y1="-302.616" x2="316.473" y2="-302.616" gradientUnits="userSpaceOnUse">
			<stop stop-color="#FF0000" stop-opacity="0.5" />
			<stop offset="1" stop-color="#7FFF00" stop-opacity="0.5" />
		</linearGradient>
		<linearGradient id="paint36_linear_1067_10" x1="379.145" y1="35.87" x2="379.145" y2="305.426" gradientUnits="userSpaceOnUse">
			<stop stop-color="#45F442" stop-opacity="0.5" />
			<stop offset="1" stop-color="#C90000" stop-opacity="0.7" />
		</linearGradient>
		<linearGradient id="paint37_linear_1067_10" x1="480.162" y1="-78.8712" x2="202.902" y2="-78.8712" gradientUnits="userSpaceOnUse">
			<stop stop-color="#FF0000" stop-opacity="0.5" />
			<stop offset="1" stop-color="#7FFF00" stop-opacity="0.5" />
		</linearGradient>
		<linearGradient id="paint38_linear_1067_10" x1="242.19" y1="259.615" x2="242.19" y2="529.171" gradientUnits="userSpaceOnUse">
			<stop stop-color="#45F442" stop-opacity="0.5" />
			<stop offset="1" stop-color="#C90000" stop-opacity="0.7" />
		</linearGradient>
		<linearGradient id="paint39_linear_1067_10" x1="343.201" y1="144.874" x2="65.9414" y2="144.874" gradientUnits="userSpaceOnUse">
			<stop stop-color="#FF0000" stop-opacity="0.5" />
			<stop offset="1" stop-color="#7FFF00" stop-opacity="0.5" />
		</linearGradient>
		<linearGradient id="paint40_linear_1067_10" x1="947.827" y1="-269.222" x2="670.567" y2="-269.222" gradientUnits="userSpaceOnUse">
			<stop stop-color="#FF0000" stop-opacity="0.5" />
			<stop offset="1" stop-color="#7FFF00" stop-opacity="0.5" />
		</linearGradient>
		<linearGradient id="paint41_linear_1067_10" x1="899.084" y1="94.875" x2="923.022" y2="-187.482" gradientUnits="userSpaceOnUse">
			<stop stop-color="#0F58C6" stop-opacity="0.4" />
			<stop offset="1" stop-color="#DE2828" stop-opacity="0.7" />
		</linearGradient>
		<linearGradient id="paint42_linear_1067_10" x1="1338.66" y1="198.306" x2="1061.4" y2="198.306" gradientUnits="userSpaceOnUse">
			<stop stop-color="#FF0000" stop-opacity="0.5" />
			<stop offset="1" stop-color="#7FFF00" stop-opacity="0.5" />
		</linearGradient>
		<linearGradient id="paint43_linear_1067_10" x1="1039.39" y1="318.62" x2="1063.33" y2="36.2627" gradientUnits="userSpaceOnUse">
			<stop stop-color="#0F58C6" stop-opacity="0.4" />
			<stop offset="1" stop-color="#DE2828" stop-opacity="0.7" />
		</linearGradient>
		<linearGradient id="paint44_linear_1067_10" x1="1478.96" y1="422.052" x2="1201.7" y2="422.052" gradientUnits="userSpaceOnUse">
			<stop stop-color="#FF0000" stop-opacity="0.5" />
			<stop offset="1" stop-color="#7FFF00" stop-opacity="0.5" />
		</linearGradient>
		<linearGradient id="paint45_linear_1067_10" x1="1179.69" y1="539.026" x2="1203.62" y2="256.669" gradientUnits="userSpaceOnUse">
			<stop stop-color="#0F58C6" stop-opacity="0.4" />
			<stop offset="1" stop-color="#DE2828" stop-opacity="0.7" />
		</linearGradient>
		<linearGradient id="paint46_linear_1067_10" x1="1619.26" y1="642.457" x2="1342" y2="642.457" gradientUnits="userSpaceOnUse">
			<stop stop-color="#FF0000" stop-opacity="0.5" />
			<stop offset="1" stop-color="#7FFF00" stop-opacity="0.5" />
		</linearGradient>
		<linearGradient id="paint47_linear_1067_10" x1="1428.86" y1="876.221" x2="1151.6" y2="876.221" gradientUnits="userSpaceOnUse">
			<stop stop-color="#FF0000" stop-opacity="0.5" />
			<stop offset="1" stop-color="#7FFF00" stop-opacity="0.5" />
		</linearGradient>
		<linearGradient id="paint48_linear_1067_10" x1="1190.89" y1="794.876" x2="1190.89" y2="525.32" gradientUnits="userSpaceOnUse">
			<stop stop-color="#45F442" stop-opacity="0.5" />
			<stop offset="1" stop-color="#C90000" stop-opacity="0.7" />
		</linearGradient>
		<linearGradient id="paint49_linear_1067_10" x1="1542.43" y1="909.616" x2="1265.17" y2="909.616" gradientUnits="userSpaceOnUse">
			<stop stop-color="#FF0000" stop-opacity="0.5" />
			<stop offset="1" stop-color="#7FFF00" stop-opacity="0.5" />
		</linearGradient>
		<linearGradient id="paint50_linear_1067_10" x1="1077.31" y1="571.13" x2="1077.31" y2="301.575" gradientUnits="userSpaceOnUse">
			<stop stop-color="#45F442" stop-opacity="0.5" />
			<stop offset="1" stop-color="#C90000" stop-opacity="0.7" />
		</linearGradient>
		<linearGradient id="paint51_linear_1067_10" x1="1428.86" y1="685.871" x2="1151.6" y2="685.871" gradientUnits="userSpaceOnUse">
			<stop stop-color="#FF0000" stop-opacity="0.5" />
			<stop offset="1" stop-color="#7FFF00" stop-opacity="0.5" />
		</linearGradient>
		<linearGradient id="paint52_linear_1067_10" x1="940.356" y1="347.384" x2="940.356" y2="77.8285" gradientUnits="userSpaceOnUse">
			<stop stop-color="#45F442" stop-opacity="0.5" />
			<stop offset="1" stop-color="#C90000" stop-opacity="0.7" />
		</linearGradient>
		<linearGradient id="paint53_linear_1067_10" x1="1291.9" y1="462.125" x2="1014.64" y2="462.125" gradientUnits="userSpaceOnUse">
			<stop stop-color="#FF0000" stop-opacity="0.5" />
			<stop offset="1" stop-color="#7FFF00" stop-opacity="0.5" />
		</linearGradient>
		<linearGradient id="paint54_linear_1067_10" x1="1073.58" y1="594.338" x2="1342.25" y2="572.672" gradientUnits="userSpaceOnUse">
			<stop stop-color="#0F58C6" stop-opacity="0.4" />
			<stop offset="1" stop-color="#DE2828" stop-opacity="0.7" />
		</linearGradient>
		<linearGradient id="paint55_linear_1067_10" x1="1213.39" y1="405.353" x2="1213.39" y2="682.53" gradientUnits="userSpaceOnUse">
			<stop stop-color="#FF0000" stop-opacity="0.5" />
			<stop offset="1" stop-color="#7FFF00" stop-opacity="0.5" />
		</linearGradient>
		<linearGradient id="paint56_linear_1067_10" x1="860.498" y1="366.077" x2="1130.13" y2="366.077" gradientUnits="userSpaceOnUse">
			<stop stop-color="#45F442" stop-opacity="0.5" />
			<stop offset="1" stop-color="#C90000" stop-opacity="0.7" />
		</linearGradient>
		<linearGradient id="paint57_linear_1067_10" x1="996.258" y1="265.095" x2="996.258" y2="542.272" gradientUnits="userSpaceOnUse">
			<stop stop-color="#FF0000" stop-opacity="0.5" />
			<stop offset="1" stop-color="#7FFF00" stop-opacity="0.5" />
		</linearGradient>
		<linearGradient id="paint58_linear_1067_10" x1="625.371" y1="313.822" x2="907.81" y2="289.863" gradientUnits="userSpaceOnUse">
			<stop stop-color="#0F58C6" stop-opacity="0.4" />
			<stop offset="1" stop-color="#DE2828" stop-opacity="0.7" />
		</linearGradient>
		<linearGradient id="paint59_linear_1067_10" x1="772.445" y1="124.837" x2="772.445" y2="402.014" gradientUnits="userSpaceOnUse">
			<stop stop-color="#FF0000" stop-opacity="0.5" />
			<stop offset="1" stop-color="#7FFF00" stop-opacity="0.5" />
		</linearGradient>
		<linearGradient id="paint60_linear_1067_10" x1="404.902" y1="173.562" x2="687.342" y2="149.604" gradientUnits="userSpaceOnUse">
			<stop stop-color="#0F58C6" stop-opacity="0.4" />
			<stop offset="1" stop-color="#DE2828" stop-opacity="0.7" />
		</linearGradient>
		<linearGradient id="paint61_linear_1067_10" x1="551.976" y1="-15.4218" x2="551.976" y2="261.755" gradientUnits="userSpaceOnUse">
			<stop stop-color="#FF0000" stop-opacity="0.5" />
			<stop offset="1" stop-color="#7FFF00" stop-opacity="0.5" />
		</linearGradient>
		<linearGradient id="paint62_linear_1067_10" x1="-61.4481" y1="25.4494" x2="194.872" y2="25.4494" gradientUnits="userSpaceOnUse">
			<stop stop-color="#45F442" stop-opacity="0.5" />
			<stop offset="1" stop-color="#C90000" stop-opacity="0.7" />
		</linearGradient>
		<linearGradient id="paint63_linear_1067_10" x1="67.6079" y1="-75.5322" x2="67.6079" y2="201.645" gradientUnits="userSpaceOnUse">
			<stop stop-color="#FF0000" stop-opacity="0.5" />
			<stop offset="1" stop-color="#7FFF00" stop-opacity="0.5" />
		</linearGradient>
		<linearGradient id="paint64_linear_1067_10" x1="148.982" y1="162.368" x2="418.619" y2="162.368" gradientUnits="userSpaceOnUse">
			<stop stop-color="#45F442" stop-opacity="0.5" />
			<stop offset="1" stop-color="#C90000" stop-opacity="0.7" />
		</linearGradient>
		<linearGradient id="paint65_linear_1067_10" x1="284.742" y1="61.3868" x2="284.742" y2="338.564" gradientUnits="userSpaceOnUse">
			<stop stop-color="#FF0000" stop-opacity="0.5" />
			<stop offset="1" stop-color="#7FFF00" stop-opacity="0.5" />
		</linearGradient>
		<linearGradient id="paint66_linear_1067_10" x1="361.473" y1="363.913" x2="643.912" y2="339.955" gradientUnits="userSpaceOnUse">
			<stop stop-color="#0F58C6" stop-opacity="0.4" />
			<stop offset="1" stop-color="#DE2828" stop-opacity="0.7" />
		</linearGradient>
		<linearGradient id="paint67_linear_1067_10" x1="508.555" y1="174.929" x2="508.555" y2="452.106" gradientUnits="userSpaceOnUse">
			<stop stop-color="#FF0000" stop-opacity="0.5" />
			<stop offset="1" stop-color="#7FFF00" stop-opacity="0.5" />
		</linearGradient>
		<linearGradient id="paint68_linear_1067_10" x1="585.285" y1="500.832" x2="867.725" y2="476.874" gradientUnits="userSpaceOnUse">
			<stop stop-color="#0F58C6" stop-opacity="0.4" />
			<stop offset="1" stop-color="#DE2828" stop-opacity="0.7" />
		</linearGradient>
		<linearGradient id="paint69_linear_1067_10" x1="732.359" y1="311.848" x2="732.359" y2="589.025" gradientUnits="userSpaceOnUse">
			<stop stop-color="#FF0000" stop-opacity="0.5" />
			<stop offset="1" stop-color="#7FFF00" stop-opacity="0.5" />
		</linearGradient>
		<linearGradient id="paint70_linear_1067_10" x1="1487.05" y1="977.177" x2="667.11" y2="203.098" gradientUnits="userSpaceOnUse">
			<stop />
			<stop offset="0.2" stop-color="white" />
			<stop offset="0.8" stop-color="white" />
			<stop offset="1" />
		</linearGradient>
		<radialGradient id="paint71_radial_1067_10" cx="0" cy="0" r="1" gradientUnits="userSpaceOnUse" gradientTransform="translate(1111.46 519.202) rotate(103.809) scale(1358.06 204.414)">
			<stop stop-color="#284356" stop-opacity="0.14" />
			<stop offset="1" stop-color="#1B7B88" stop-opacity="0" />
		</radialGradient>
		<linearGradient id="paint72_linear_1067_10" x1="1920.46" y1="-502.597" x2="380.029" y2="1574.68" gradientUnits="userSpaceOnUse">
			<stop stop-color="#4D0A0A" stop-opacity="0.14" />
			<stop offset="1" stop-color="#992355" stop-opacity="0" />
		</linearGradient>
		<radialGradient id="paint73_radial_1067_10" cx="0" cy="0" r="1" gradientUnits="userSpaceOnUse" gradientTransform="translate(1059.93 578.154) rotate(116.332) scale(1310.41 98.6374)">
			<stop stop-color="#3C8622" stop-opacity="0.14" />
			<stop offset="1" stop-color="#2F890F" stop-opacity="0" />
		</radialGradient>
		<radialGradient id="paint74_radial_1067_10" cx="0" cy="0" r="1" gradientUnits="userSpaceOnUse" gradientTransform="translate(1124.34 528.492) rotate(129.715) scale(1287.59 215.6)">
			<stop stop-color="#1265A1" stop-opacity="0.14" />
			<stop offset="1" stop-color="#0F646F" stop-opacity="0" />
		</radialGradient>
		<linearGradient id="paint75_linear_1067_10" x1="2338.41" y1="-38.8644" x2="286.204" y2="1550" gradientUnits="userSpaceOnUse">
			<stop stop-color="#136A76" stop-opacity="0.03" />
			<stop offset="1" stop-color="#2075C4" stop-opacity="0" />
		</linearGradient>
		<radialGradient id="paint76_radial_1067_10" cx="0" cy="0" r="1" gradientUnits="userSpaceOnUse" gradientTransform="translate(1049.28 559.488) rotate(143.102) scale(1294.36 99.8605)">
			<stop stop-color="#2B1174" stop-opacity="0.14" />
			<stop offset="1" stop-color="#7A2626" stop-opacity="0" />
		</radialGradient>
		<radialGradient id="paint77_radial_1067_10" cx="0" cy="0" r="1" gradientUnits="userSpaceOnUse" gradientTransform="translate(1116.14 522.389) rotate(112.736) scale(1321.54 210.063)">
			<stop stop-color="#284356" stop-opacity="0.14" />
			<stop offset="1" stop-color="#1B7B88" stop-opacity="0" />
		</radialGradient>
		<linearGradient id="paint78_linear_1067_10" x1="2084.91" y1="-349.035" x2="357.305" y2="1558.26" gradientUnits="userSpaceOnUse">
			<stop stop-color="#4D0A0A" stop-opacity="0.14" />
			<stop offset="1" stop-color="#992355" stop-opacity="0" />
		</linearGradient>
		<radialGradient id="paint79_radial_1067_10" cx="0" cy="0" r="1" gradientUnits="userSpaceOnUse" gradientTransform="translate(1055.25 572.031) rotate(125.806) scale(1291.21 100.104)">
			<stop stop-color="#369316" stop-opacity="0.08" />
			<stop offset="1" stop-color="#3F9A1F" stop-opacity="0" />
		</radialGradient>
		<radialGradient id="paint80_radial_1067_10" cx="0" cy="0" r="1" gradientUnits="userSpaceOnUse" gradientTransform="translate(1121.77 526.681) rotate(124.434) scale(1293.07 214.687)">
			<stop stop-color="#284356" stop-opacity="0.14" />
			<stop offset="1" stop-color="#1B7B88" stop-opacity="0" />
		</radialGradient>
		<linearGradient id="paint81_linear_1067_10" x1="2267.09" y1="-137.651" x2="313.671" y2="1551.67" gradientUnits="userSpaceOnUse">
			<stop stop-color="#4D0A0A" stop-opacity="0.14" />
			<stop offset="1" stop-color="#992355" stop-opacity="0" />
		</linearGradient>
		<radialGradient id="paint82_radial_1067_10" cx="0" cy="0" r="1" gradientUnits="userSpaceOnUse" gradientTransform="translate(1050.66 563.597) rotate(137.829) scale(1288.16 100.341)">
			<stop stop-color="#3C8622" stop-opacity="0.14" />
			<stop offset="1" stop-color="#2F890F" stop-opacity="0" />
		</radialGradient>
		<radialGradient id="paint83_radial_1067_10" cx="0" cy="0" r="1" gradientUnits="userSpaceOnUse" gradientTransform="translate(1131.24 539.412) rotate(151.182) scale(1312.73 211.472)">
			<stop stop-color="#1265A1" stop-opacity="0.14" />
			<stop offset="1" stop-color="#0F646F" stop-opacity="0" />
		</radialGradient>
		<linearGradient id="paint84_linear_1067_10" x1="2560.74" y1="392.609" x2="101.348" y2="1514.18" gradientUnits="userSpaceOnUse">
			<stop stop-color="#136A76" stop-opacity="0.03" />
			<stop offset="1" stop-color="#2075C4" stop-opacity="0" />
		</linearGradient>
		<clipPath id="clip0_1067_10">
			<rect width="1280" height="720" fill="white" />
		</clipPath>
		<clipPath id="clip1_1067_10">
			<rect width="1280" height="832" fill="white" transform="translate(0 -112)" />
		</clipPath>
		<clipPath id="clip2_1067_10">
			<rect width="1403" height="905" fill="white" transform="translate(-61 -149)" />
		</clipPath>
		<clipPath id="clip3_1067_10">
			<rect width="1244" height="905" fill="white" transform="translate(333 -135)" />
		</clipPath>
	</defs>
</svg>
