<svg width="420" height="271" viewBox="0 0 420 271" fill="none" xmlns="http://www.w3.org/2000/svg">
	<rect width="420" height="271" fill="#D9D9D9" />
	<g clip-path="url(#clip0_1016_13)">
		<rect width="420" height="271" fill="url(#paint0_linear_1016_13)" fill-opacity="0.2" />
		<g opacity="0.1">
			<g opacity="0.9">
				<path d="M77 191.4C77 186.36 77 183.839 76.0191 181.914C75.1562 180.221 73.7794 178.844 72.0859 177.981C70.1607 177 67.6405 177 62.6 177H0V260H62.6C67.6405 260 70.1607 260 72.0859 259.019C73.7794 258.156 75.1562 256.779 76.0191 255.086C77 253.161 77 250.64 77 245.6V191.4Z" fill="url(#paint1_linear_1016_13)" />
				<path d="M-37.5 177V139.5H0H62.6C62.7551 139.5 62.922 139.5 63.0996 139.5C65.0999 139.497 68.4587 139.493 71.5649 139.747C75.3847 140.059 81.9804 140.935 89.1106 144.568C97.8601 149.026 104.974 156.14 109.432 164.889C113.065 172.02 113.941 178.615 114.253 182.435C114.507 185.541 114.503 188.9 114.5 190.9C114.5 191.078 114.5 191.245 114.5 191.4V245.6C114.5 245.755 114.5 245.922 114.5 246.1C114.503 248.1 114.507 251.459 114.253 254.565C113.941 258.385 113.065 264.98 109.432 272.111C104.974 280.86 97.8601 287.974 89.1106 292.432C81.9804 296.065 75.3847 296.941 71.5649 297.253C68.4587 297.507 65.1 297.503 63.0996 297.5C62.922 297.5 62.7551 297.5 62.6 297.5H0H-37.5V260V177Z" stroke="url(#paint2_linear_1016_13)" stroke-opacity="0.2" stroke-width="75" />
				<rect width="81" height="83" rx="9" transform="matrix(-1 0 0 1 144 135)" fill="url(#paint3_linear_1016_13)" />
				<rect x="37.5" y="-37.5" width="156" height="158" rx="46.5" transform="matrix(-1 0 0 1 219 135)" stroke="url(#paint4_linear_1016_13)" stroke-opacity="0.2" stroke-width="75" />
				<rect width="81" height="83" rx="9" transform="matrix(-1 0 0 1 211 93)" fill="url(#paint5_linear_1016_13)" />
				<rect x="37.5" y="-37.5" width="156" height="158" rx="46.5" transform="matrix(-1 0 0 1 286 93)" stroke="url(#paint6_linear_1016_13)" stroke-opacity="0.2" stroke-width="75" />
				<rect width="81" height="83" rx="9" transform="matrix(-1 0 0 1 277 51)" fill="url(#paint7_linear_1016_13)" />
				<rect x="37.5" y="-37.5" width="156" height="158" rx="46.5" transform="matrix(-1 0 0 1 352 51)" stroke="url(#paint8_linear_1016_13)" stroke-opacity="0.2" stroke-width="75" />
			</g>
			<g opacity="0.9">
				<path d="M420 33H357.4C352.36 33 349.839 33 347.914 33.9809C346.221 34.8438 344.844 36.2206 343.981 37.9141C343 39.8393 343 42.3595 343 47.4V101.6C343 106.64 343 109.161 343.981 111.086C344.844 112.779 346.221 114.156 347.914 115.019C349.839 116 352.36 116 357.4 116H420V33Z" fill="url(#paint9_linear_1016_13)" />
				<path d="M420 -4.5H457.5V33V116V153.5H420H357.4C357.245 153.5 357.078 153.5 356.9 153.5C354.9 153.503 351.541 153.507 348.435 153.253C344.615 152.941 338.02 152.065 330.889 148.432C322.14 143.974 315.026 136.86 310.568 128.111C306.935 120.98 306.059 114.385 305.747 110.565C305.493 107.459 305.497 104.1 305.5 102.1C305.5 101.922 305.5 101.755 305.5 101.6V47.4C305.5 47.2449 305.5 47.078 305.5 46.9004C305.497 44.9 305.493 41.5413 305.747 38.4351C306.059 34.6153 306.935 28.0196 310.568 20.8894C315.026 12.1399 322.14 5.02631 330.889 0.568195C338.02 -3.0648 344.615 -3.94075 348.435 -4.25284C351.541 -4.50663 354.9 -4.50272 356.9 -4.5004C357.078 -4.50019 357.245 -4.5 357.4 -4.5H420Z" stroke="url(#paint10_linear_1016_13)" stroke-opacity="0.2" stroke-width="75" />
				<rect width="81" height="83" rx="9" transform="matrix(-1 0 0 1 357 74)" fill="url(#paint11_linear_1016_13)" />
				<rect x="37.5" y="-37.5" width="156" height="158" rx="46.5" transform="matrix(-1 0 0 1 432 74)" stroke="url(#paint12_linear_1016_13)" stroke-opacity="0.2" stroke-width="75" />
				<rect width="81" height="83" rx="9" transform="matrix(-1 0 0 1 290 108)" fill="url(#paint13_linear_1016_13)" />
				<rect x="37.5" y="-37.5" width="156" height="158" rx="46.5" transform="matrix(-1 0 0 1 365 108)" stroke="url(#paint14_linear_1016_13)" stroke-opacity="0.2" stroke-width="75" />
				<rect width="81" height="83" rx="9" transform="matrix(-1 0 0 1 223 149)" fill="url(#paint15_linear_1016_13)" />
				<rect x="37.5" y="-37.5" width="156" height="158" rx="46.5" transform="matrix(-1 0 0 1 298 149)" stroke="url(#paint16_linear_1016_13)" stroke-opacity="0.2" stroke-width="75" />
			</g>
		</g>
		<g opacity="0.2">
			<g opacity="0.9">
				<path d="M78.6 268.5C83.6405 268.5 86.1607 268.5 88.0859 269.481C89.7794 270.344 91.1562 271.721 92.0191 273.414C93 275.339 93 277.86 93 282.9L93 345.5L10 345.5L10 282.9C10 277.86 10 275.339 10.9809 273.414C11.8438 271.721 13.2206 270.344 14.9141 269.481C16.8393 268.5 19.3595 268.5 24.4 268.5L78.6 268.5Z" fill="url(#paint17_linear_1016_13)" />
				<path d="M93 383L130.5 383L130.5 345.5L130.5 282.9C130.5 282.745 130.5 282.578 130.5 282.4C130.503 280.4 130.507 277.041 130.253 273.935C129.941 270.115 129.065 263.52 125.432 256.389C120.974 247.64 113.86 240.526 105.111 236.068C97.9804 232.435 91.3847 231.559 87.5649 231.247C84.4587 230.993 81.0999 230.997 79.0996 231C78.922 231 78.7551 231 78.6 231L24.4 231C24.2449 231 24.078 231 23.9004 231C21.9001 230.997 18.5413 230.993 15.4351 231.247C11.6153 231.559 5.01959 232.435 -2.11056 236.068C-10.8601 240.526 -17.9737 247.64 -22.4318 256.389C-26.0648 263.52 -26.9408 270.115 -27.2528 273.935C-27.5066 277.041 -27.5027 280.4 -27.5004 282.4C-27.5002 282.578 -27.5 282.745 -27.5 282.9L-27.5 345.5L-27.5 383L9.99999 383L93 383Z" stroke="url(#paint18_linear_1016_13)" stroke-opacity="0.2" stroke-width="75" />
				<rect x="135" y="201.5" width="81" height="83" rx="9" transform="rotate(90 135 201.5)" fill="url(#paint19_linear_1016_13)" />
				<rect x="172.5" y="164" width="156" height="158" rx="46.5" transform="rotate(90 172.5 164)" stroke="url(#paint20_linear_1016_13)" stroke-opacity="0.2" stroke-width="75" />
				<rect x="177" y="134.5" width="81" height="83" rx="9" transform="rotate(90 177 134.5)" fill="url(#paint21_linear_1016_13)" />
				<rect x="214.5" y="97" width="156" height="158" rx="46.5" transform="rotate(90 214.5 97)" stroke="url(#paint22_linear_1016_13)" stroke-opacity="0.2" stroke-width="75" />
				<rect x="219" y="68.5" width="81" height="83" rx="9" transform="rotate(90 219 68.5)" fill="url(#paint23_linear_1016_13)" />
				<rect x="256.5" y="31" width="156" height="158" rx="46.5" transform="rotate(90 256.5 31)" stroke="url(#paint24_linear_1016_13)" stroke-opacity="0.2" stroke-width="75" />
			</g>
			<g opacity="0.9">
				<path d="M237 -74.5L237 -11.9C237 -6.85953 237 -4.33929 236.019 -2.41409C235.156 -0.720627 233.779 0.656198 232.086 1.51906C230.161 2.5 227.64 2.5 222.6 2.5L168.4 2.5C163.36 2.5 160.839 2.5 158.914 1.51906C157.221 0.656195 155.844 -0.72063 154.981 -2.41409C154 -4.33929 154 -6.85953 154 -11.9L154 -74.5L237 -74.5Z" fill="url(#paint25_linear_1016_13)" />
				<path d="M274.5 -74.5L274.5 -112L237 -112L154 -112L116.5 -112L116.5 -74.5L116.5 -11.9C116.5 -11.7449 116.5 -11.578 116.5 -11.4004C116.497 -9.40004 116.493 -6.04131 116.747 -2.93512C117.059 0.884676 117.935 7.4804 121.568 14.6106C126.026 23.3601 133.14 30.4737 141.889 34.9318C149.02 38.5648 155.615 39.4407 159.435 39.7528C162.541 40.0066 165.9 40.0027 167.9 40.0004C168.078 40.0002 168.245 40 168.4 40L222.6 40C222.755 40 222.922 40.0002 223.1 40.0004C225.1 40.0027 228.459 40.0066 231.565 39.7528C235.385 39.4408 241.98 38.5648 249.111 34.9318C257.86 30.4737 264.974 23.3601 269.432 14.6106C273.065 7.48041 273.941 0.884683 274.253 -2.93513C274.507 -6.04133 274.503 -9.40008 274.5 -11.4004C274.5 -11.578 274.5 -11.7449 274.5 -11.9L274.5 -74.5Z" stroke="url(#paint26_linear_1016_13)" stroke-opacity="0.2" stroke-width="75" />
				<rect x="196" y="-11.5" width="81" height="83" rx="9" transform="rotate(90 196 -11.5)" fill="url(#paint27_linear_1016_13)" />
				<rect x="233.5" y="-49" width="156" height="158" rx="46.5" transform="rotate(90 233.5 -49)" stroke="url(#paint28_linear_1016_13)" stroke-opacity="0.2" stroke-width="75" />
				<rect x="162" y="55.5" width="81" height="83" rx="9" transform="rotate(90 162 55.5)" fill="url(#paint29_linear_1016_13)" />
				<rect x="199.5" y="18" width="156" height="158" rx="46.5" transform="rotate(90 199.5 18)" stroke="url(#paint30_linear_1016_13)" stroke-opacity="0.2" stroke-width="75" />
				<rect x="121" y="122.5" width="81" height="83" rx="9" transform="rotate(90 121 122.5)" fill="url(#paint31_linear_1016_13)" />
				<rect x="158.5" y="85" width="156" height="158" rx="46.5" transform="rotate(90 158.5 85)" stroke="url(#paint32_linear_1016_13)" stroke-opacity="0.2" stroke-width="75" />
			</g>
		</g>
		<g opacity="0.2">
			<g opacity="0.9">
				<path d="M287.6 2.5C292.64 2.5 295.161 2.5 297.086 1.51906C298.779 0.656198 300.156 -0.720627 301.019 -2.41409C302 -4.33929 302 -6.85953 302 -11.9L302 -74.5L219 -74.5L219 -11.9C219 -6.85952 219 -4.33929 219.981 -2.41408C220.844 -0.720623 222.221 0.656202 223.914 1.51906C225.839 2.5 228.36 2.5 233.4 2.5L287.6 2.5Z" fill="url(#paint33_linear_1016_13)" />
				<path d="M302 -112L339.5 -112L339.5 -74.5L339.5 -11.9C339.5 -11.7449 339.5 -11.578 339.5 -11.4004C339.503 -9.40007 339.507 -6.04133 339.253 -2.93512C338.941 0.884681 338.065 7.48041 334.432 14.6106C329.974 23.3601 322.86 30.4737 314.111 34.9318C306.98 38.5648 300.385 39.4408 296.565 39.7528C293.459 40.0066 290.1 40.0027 288.1 40.0004C287.922 40.0002 287.755 40 287.6 40L233.4 40C233.245 40 233.078 40.0002 232.9 40.0004C230.9 40.0027 227.541 40.0066 224.435 39.7528C220.615 39.4408 214.02 38.5648 206.889 34.9318C198.14 30.4737 191.026 23.3601 186.568 14.6106C182.935 7.48041 182.059 0.884685 181.747 -2.93512C181.493 -6.04131 181.497 -9.40002 181.5 -11.4004C181.5 -11.578 181.5 -11.7449 181.5 -11.9L181.5 -74.5L181.5 -112L219 -112L302 -112Z" stroke="url(#paint34_linear_1016_13)" stroke-opacity="0.2" stroke-width="75" />
				<rect width="81" height="83" rx="9" transform="matrix(-4.37114e-08 -1 -1 4.37114e-08 344 69.5)" fill="url(#paint35_linear_1016_13)" />
				<rect x="37.5" y="37.5" width="156" height="158" rx="46.5" transform="matrix(-4.37114e-08 -1 -1 4.37114e-08 419 144.5)" stroke="url(#paint36_linear_1016_13)" stroke-opacity="0.2" stroke-width="75" />
				<rect width="81" height="83" rx="9" transform="matrix(-4.37114e-08 -1 -1 4.37114e-08 386 136.5)" fill="url(#paint37_linear_1016_13)" />
				<rect x="37.5" y="37.5" width="156" height="158" rx="46.5" transform="matrix(-4.37114e-08 -1 -1 4.37114e-08 461 211.5)" stroke="url(#paint38_linear_1016_13)" stroke-opacity="0.2" stroke-width="75" />
				<rect width="81" height="83" rx="9" transform="matrix(-4.37114e-08 -1 -1 4.37114e-08 428 202.5)" fill="url(#paint39_linear_1016_13)" />
				<rect x="37.5" y="37.5" width="156" height="158" rx="46.5" transform="matrix(-4.37114e-08 -1 -1 4.37114e-08 503 277.5)" stroke="url(#paint40_linear_1016_13)" stroke-opacity="0.2" stroke-width="75" />
			</g>
			<g opacity="0.9">
				<path d="M446 345.5L446 282.9C446 277.86 446 275.339 445.019 273.414C444.156 271.721 442.779 270.344 441.086 269.481C439.161 268.5 436.64 268.5 431.6 268.5L377.4 268.5C372.36 268.5 369.839 268.5 367.914 269.481C366.221 270.344 364.844 271.721 363.981 273.414C363 275.339 363 277.86 363 282.9L363 345.5L446 345.5Z" fill="url(#paint41_linear_1016_13)" />
				<path d="M483.5 345.5L483.5 383L446 383L363 383L325.5 383L325.5 345.5L325.5 282.9C325.5 282.745 325.5 282.578 325.5 282.4C325.497 280.4 325.493 277.041 325.747 273.935C326.059 270.115 326.935 263.52 330.568 256.389C335.026 247.64 342.14 240.526 350.889 236.068C358.02 232.435 364.615 231.559 368.435 231.247C371.541 230.993 374.9 230.997 376.9 231C377.078 231 377.245 231 377.4 231L431.6 231C431.755 231 431.922 231 432.1 231C434.1 230.997 437.459 230.993 440.565 231.247C444.385 231.559 450.98 232.435 458.111 236.068C466.86 240.526 473.974 247.64 478.432 256.389C482.065 263.52 482.941 270.115 483.253 273.935C483.507 277.041 483.503 280.4 483.5 282.4C483.5 282.578 483.5 282.745 483.5 282.9L483.5 345.5Z" stroke="url(#paint42_linear_1016_13)" stroke-opacity="0.2" stroke-width="75" />
				<rect width="81" height="83" rx="9" transform="matrix(-4.37114e-08 -1 -1 4.37114e-08 405 282.5)" fill="url(#paint43_linear_1016_13)" />
				<rect x="37.5" y="37.5" width="156" height="158" rx="46.5" transform="matrix(-4.37114e-08 -1 -1 4.37114e-08 480 357.5)" stroke="url(#paint44_linear_1016_13)" stroke-opacity="0.2" stroke-width="75" />
				<rect width="81" height="83" rx="9" transform="matrix(-4.37114e-08 -1 -1 4.37114e-08 371 215.5)" fill="url(#paint45_linear_1016_13)" />
				<rect x="37.5" y="37.5" width="156" height="158" rx="46.5" transform="matrix(-4.37114e-08 -1 -1 4.37114e-08 446 290.5)" stroke="url(#paint46_linear_1016_13)" stroke-opacity="0.2" stroke-width="75" />
				<rect width="81" height="83" rx="9" transform="matrix(-4.37114e-08 -1 -1 4.37114e-08 330 148.5)" fill="url(#paint47_linear_1016_13)" />
				<rect x="37.5" y="37.5" width="156" height="158" rx="46.5" transform="matrix(-4.37114e-08 -1 -1 4.37114e-08 405 223.5)" stroke="url(#paint48_linear_1016_13)" stroke-opacity="0.2" stroke-width="75" />
			</g>
		</g>
		<g opacity="0.8">
			<g opacity="0.9">
				<path d="M343 180.4C343 175.36 343 172.839 343.981 170.914C344.844 169.221 346.221 167.844 347.914 166.981C349.839 166 352.36 166 357.4 166H420V249H357.4C352.36 249 349.839 249 347.914 248.019C346.221 247.156 344.844 245.779 343.981 244.086C343 242.161 343 239.64 343 234.6V180.4Z" fill="url(#paint49_linear_1016_13)" />
				<path d="M422.5 166V163.5H420H357.4L357.294 163.5C354.864 163.5 352.888 163.5 351.285 163.631C349.63 163.766 348.153 164.053 346.779 164.753C344.615 165.856 342.856 167.615 341.753 169.779C341.053 171.153 340.766 172.63 340.631 174.285C340.5 175.888 340.5 177.864 340.5 180.294L340.5 180.4V234.6L340.5 234.706C340.5 237.136 340.5 239.112 340.631 240.715C340.766 242.37 341.053 243.847 341.753 245.221C342.856 247.385 344.615 249.144 346.779 250.247C348.153 250.947 349.63 251.234 351.285 251.369C352.888 251.5 354.864 251.5 357.294 251.5H357.4H420H422.5V249V166Z" stroke="url(#paint50_linear_1016_13)" stroke-opacity="0.2" stroke-width="5" />
				<rect x="276" y="124" width="81" height="83" rx="9" fill="url(#paint51_linear_1016_13)" fill-opacity="0.2" />
				<rect x="273.5" y="121.5" width="86" height="88" rx="11.5" stroke="url(#paint52_linear_1016_13)" stroke-opacity="0.2" stroke-width="5" />
				<rect x="209" y="82" width="81" height="83" rx="9" fill="url(#paint53_linear_1016_13)" fill-opacity="0.5" />
				<rect x="206.5" y="79.5" width="86" height="88" rx="11.5" stroke="url(#paint54_linear_1016_13)" stroke-opacity="0.2" stroke-width="5" />
				<rect x="143" y="40" width="81" height="83" rx="9" fill="url(#paint55_linear_1016_13)" />
				<rect x="140.5" y="37.5" width="86" height="88" rx="11.5" stroke="url(#paint56_linear_1016_13)" stroke-opacity="0.2" stroke-width="5" />
			</g>
			<g opacity="0.9">
				<path d="M0 22H62.6C67.6405 22 70.1607 22 72.0859 22.9809C73.7794 23.8438 75.1562 25.2206 76.0191 26.9141C77 28.8393 77 31.3595 77 36.4V90.6C77 95.6405 77 98.1607 76.0191 100.086C75.1562 101.779 73.7794 103.156 72.0859 104.019C70.1607 105 67.6405 105 62.6 105H0V22Z" fill="url(#paint57_linear_1016_13)" />
				<path d="M0 19.5H-2.5V22V105V107.5H0H62.6H62.7058C65.1362 107.5 67.1118 107.5 68.7148 107.369C70.3701 107.234 71.8471 106.947 73.2209 106.247C75.3848 105.144 77.144 103.385 78.2466 101.221C78.9465 99.8471 79.2338 98.3701 79.3691 96.7148C79.5001 95.1118 79.5 93.1362 79.5 90.7058V90.6V36.4V36.2942C79.5 33.8638 79.5001 31.8882 79.3691 30.2852C79.2338 28.6299 78.9465 27.1529 78.2466 25.7791C77.144 23.6152 75.3848 21.856 73.2209 20.7534C71.8471 20.0535 70.3701 19.7662 68.7148 19.6309C67.1118 19.4999 65.1362 19.5 62.7057 19.5L62.6 19.5H0Z" stroke="url(#paint58_linear_1016_13)" stroke-opacity="0.2" stroke-width="5" />
				<rect x="63" y="63" width="81" height="83" rx="9" fill="url(#paint59_linear_1016_13)" fill-opacity="0.2" />
				<rect x="60.5" y="60.5" width="86" height="88" rx="11.5" stroke="url(#paint60_linear_1016_13)" stroke-opacity="0.2" stroke-width="5" />
				<rect x="130" y="97" width="81" height="83" rx="9" fill="url(#paint61_linear_1016_13)" fill-opacity="0.5" />
				<rect x="127.5" y="94.5" width="86" height="88" rx="11.5" stroke="url(#paint62_linear_1016_13)" stroke-opacity="0.2" stroke-width="5" />
				<rect x="197" y="138" width="81" height="83" rx="9" fill="url(#paint63_linear_1016_13)" />
				<rect x="194.5" y="135.5" width="86" height="88" rx="11.5" stroke="url(#paint64_linear_1016_13)" stroke-opacity="0.2" stroke-width="5" />
			</g>
		</g>
	</g>
	<defs>
		<linearGradient id="paint0_linear_1016_13" x1="384.163" y1="-6.23648e-06" x2="35.8374" y2="271" gradientUnits="userSpaceOnUse">
			<stop stop-color="#FFD700" />
			<stop offset="0.240073" stop-color="#3300FF" stop-opacity="0.5" />
			<stop offset="0.649501" stop-color="#0000FF" />
			<stop offset="1" stop-color="#FF0000" stop-opacity="0.75" />
		</linearGradient>
		<linearGradient id="paint1_linear_1016_13" x1="80.3537" y1="233.591" x2="-0.0772276" y2="227.107" gradientUnits="userSpaceOnUse">
			<stop stop-color="#0F58C6" stop-opacity="0.4" />
			<stop offset="1" stop-color="#DE2828" stop-opacity="0.7" />
		</linearGradient>
		<linearGradient id="paint2_linear_1016_13" x1="38.5" y1="177" x2="38.5" y2="260" gradientUnits="userSpaceOnUse">
			<stop stop-color="#FF0000" stop-opacity="0.5" />
			<stop offset="1" stop-color="#7FFF00" stop-opacity="0.5" />
		</linearGradient>
		<linearGradient id="paint3_linear_1016_13" x1="-3.52787" y1="56.5909" x2="81.023" y2="49.4207" gradientUnits="userSpaceOnUse">
			<stop stop-color="#0F58C6" stop-opacity="0.4" />
			<stop offset="1" stop-color="#DE2828" stop-opacity="0.7" />
		</linearGradient>
		<linearGradient id="paint4_linear_1016_13" x1="40.5" y1="0" x2="40.5" y2="83" gradientUnits="userSpaceOnUse">
			<stop stop-color="#FF0000" stop-opacity="0.5" />
			<stop offset="1" stop-color="#7FFF00" stop-opacity="0.5" />
		</linearGradient>
		<linearGradient id="paint5_linear_1016_13" x1="-3.52787" y1="56.5909" x2="81.023" y2="49.4207" gradientUnits="userSpaceOnUse">
			<stop stop-color="#0F58C6" stop-opacity="0.4" />
			<stop offset="1" stop-color="#DE2828" stop-opacity="0.7" />
		</linearGradient>
		<linearGradient id="paint6_linear_1016_13" x1="40.5" y1="0" x2="40.5" y2="83" gradientUnits="userSpaceOnUse">
			<stop stop-color="#FF0000" stop-opacity="0.5" />
			<stop offset="1" stop-color="#7FFF00" stop-opacity="0.5" />
		</linearGradient>
		<linearGradient id="paint7_linear_1016_13" x1="-3.52787" y1="56.5909" x2="81.023" y2="49.4207" gradientUnits="userSpaceOnUse">
			<stop stop-color="#0F58C6" stop-opacity="0.4" />
			<stop offset="1" stop-color="#DE2828" stop-opacity="0.7" />
		</linearGradient>
		<linearGradient id="paint8_linear_1016_13" x1="40.5" y1="0" x2="40.5" y2="83" gradientUnits="userSpaceOnUse">
			<stop stop-color="#FF0000" stop-opacity="0.5" />
			<stop offset="1" stop-color="#7FFF00" stop-opacity="0.5" />
		</linearGradient>
		<linearGradient id="paint9_linear_1016_13" x1="420.134" y1="63.2387" x2="343.402" y2="63.2387" gradientUnits="userSpaceOnUse">
			<stop stop-color="#45F442" stop-opacity="0.5" />
			<stop offset="1" stop-color="#C90000" stop-opacity="0.7" />
		</linearGradient>
		<linearGradient id="paint10_linear_1016_13" x1="381.5" y1="33" x2="381.5" y2="116" gradientUnits="userSpaceOnUse">
			<stop stop-color="#FF0000" stop-opacity="0.5" />
			<stop offset="1" stop-color="#7FFF00" stop-opacity="0.5" />
		</linearGradient>
		<linearGradient id="paint11_linear_1016_13" x1="-0.141114" y1="30.2387" x2="80.5767" y2="30.2387" gradientUnits="userSpaceOnUse">
			<stop stop-color="#45F442" stop-opacity="0.5" />
			<stop offset="1" stop-color="#C90000" stop-opacity="0.7" />
		</linearGradient>
		<linearGradient id="paint12_linear_1016_13" x1="40.5" y1="0" x2="40.5" y2="83" gradientUnits="userSpaceOnUse">
			<stop stop-color="#FF0000" stop-opacity="0.5" />
			<stop offset="1" stop-color="#7FFF00" stop-opacity="0.5" />
		</linearGradient>
		<linearGradient id="paint13_linear_1016_13" x1="-0.141114" y1="30.2387" x2="80.5767" y2="30.2387" gradientUnits="userSpaceOnUse">
			<stop stop-color="#45F442" stop-opacity="0.5" />
			<stop offset="1" stop-color="#C90000" stop-opacity="0.7" />
		</linearGradient>
		<linearGradient id="paint14_linear_1016_13" x1="40.5" y1="0" x2="40.5" y2="83" gradientUnits="userSpaceOnUse">
			<stop stop-color="#FF0000" stop-opacity="0.5" />
			<stop offset="1" stop-color="#7FFF00" stop-opacity="0.5" />
		</linearGradient>
		<linearGradient id="paint15_linear_1016_13" x1="-0.141114" y1="30.2387" x2="80.5767" y2="30.2387" gradientUnits="userSpaceOnUse">
			<stop stop-color="#45F442" stop-opacity="0.5" />
			<stop offset="1" stop-color="#C90000" stop-opacity="0.7" />
		</linearGradient>
		<linearGradient id="paint16_linear_1016_13" x1="40.5" y1="0" x2="40.5" y2="83" gradientUnits="userSpaceOnUse">
			<stop stop-color="#FF0000" stop-opacity="0.5" />
			<stop offset="1" stop-color="#7FFF00" stop-opacity="0.5" />
		</linearGradient>
		<linearGradient id="paint17_linear_1016_13" x1="36.4091" y1="265.146" x2="42.8931" y2="345.577" gradientUnits="userSpaceOnUse">
			<stop stop-color="#0F58C6" stop-opacity="0.4" />
			<stop offset="1" stop-color="#DE2828" stop-opacity="0.7" />
		</linearGradient>
		<linearGradient id="paint18_linear_1016_13" x1="93" y1="307" x2="10" y2="307" gradientUnits="userSpaceOnUse">
			<stop stop-color="#FF0000" stop-opacity="0.5" />
			<stop offset="1" stop-color="#7FFF00" stop-opacity="0.5" />
		</linearGradient>
		<linearGradient id="paint19_linear_1016_13" x1="131.472" y1="258.091" x2="216.023" y2="250.921" gradientUnits="userSpaceOnUse">
			<stop stop-color="#0F58C6" stop-opacity="0.4" />
			<stop offset="1" stop-color="#DE2828" stop-opacity="0.7" />
		</linearGradient>
		<linearGradient id="paint20_linear_1016_13" x1="175.5" y1="201.5" x2="175.5" y2="284.5" gradientUnits="userSpaceOnUse">
			<stop stop-color="#FF0000" stop-opacity="0.5" />
			<stop offset="1" stop-color="#7FFF00" stop-opacity="0.5" />
		</linearGradient>
		<linearGradient id="paint21_linear_1016_13" x1="173.472" y1="191.091" x2="258.023" y2="183.921" gradientUnits="userSpaceOnUse">
			<stop stop-color="#0F58C6" stop-opacity="0.4" />
			<stop offset="1" stop-color="#DE2828" stop-opacity="0.7" />
		</linearGradient>
		<linearGradient id="paint22_linear_1016_13" x1="217.5" y1="134.5" x2="217.5" y2="217.5" gradientUnits="userSpaceOnUse">
			<stop stop-color="#FF0000" stop-opacity="0.5" />
			<stop offset="1" stop-color="#7FFF00" stop-opacity="0.5" />
		</linearGradient>
		<linearGradient id="paint23_linear_1016_13" x1="215.472" y1="125.091" x2="300.023" y2="117.921" gradientUnits="userSpaceOnUse">
			<stop stop-color="#0F58C6" stop-opacity="0.4" />
			<stop offset="1" stop-color="#DE2828" stop-opacity="0.7" />
		</linearGradient>
		<linearGradient id="paint24_linear_1016_13" x1="259.5" y1="68.5" x2="259.5" y2="151.5" gradientUnits="userSpaceOnUse">
			<stop stop-color="#FF0000" stop-opacity="0.5" />
			<stop offset="1" stop-color="#7FFF00" stop-opacity="0.5" />
		</linearGradient>
		<linearGradient id="paint25_linear_1016_13" x1="206.761" y1="-74.6341" x2="206.761" y2="2.09756" gradientUnits="userSpaceOnUse">
			<stop stop-color="#45F442" stop-opacity="0.5" />
			<stop offset="1" stop-color="#C90000" stop-opacity="0.7" />
		</linearGradient>
		<linearGradient id="paint26_linear_1016_13" x1="237" y1="-36" x2="154" y2="-36" gradientUnits="userSpaceOnUse">
			<stop stop-color="#FF0000" stop-opacity="0.5" />
			<stop offset="1" stop-color="#7FFF00" stop-opacity="0.5" />
		</linearGradient>
		<linearGradient id="paint27_linear_1016_13" x1="195.859" y1="18.7387" x2="276.577" y2="18.7387" gradientUnits="userSpaceOnUse">
			<stop stop-color="#45F442" stop-opacity="0.5" />
			<stop offset="1" stop-color="#C90000" stop-opacity="0.7" />
		</linearGradient>
		<linearGradient id="paint28_linear_1016_13" x1="236.5" y1="-11.5" x2="236.5" y2="71.5" gradientUnits="userSpaceOnUse">
			<stop stop-color="#FF0000" stop-opacity="0.5" />
			<stop offset="1" stop-color="#7FFF00" stop-opacity="0.5" />
		</linearGradient>
		<linearGradient id="paint29_linear_1016_13" x1="161.859" y1="85.7387" x2="242.577" y2="85.7387" gradientUnits="userSpaceOnUse">
			<stop stop-color="#45F442" stop-opacity="0.5" />
			<stop offset="1" stop-color="#C90000" stop-opacity="0.7" />
		</linearGradient>
		<linearGradient id="paint30_linear_1016_13" x1="202.5" y1="55.5" x2="202.5" y2="138.5" gradientUnits="userSpaceOnUse">
			<stop stop-color="#FF0000" stop-opacity="0.5" />
			<stop offset="1" stop-color="#7FFF00" stop-opacity="0.5" />
		</linearGradient>
		<linearGradient id="paint31_linear_1016_13" x1="120.859" y1="152.739" x2="201.577" y2="152.739" gradientUnits="userSpaceOnUse">
			<stop stop-color="#45F442" stop-opacity="0.5" />
			<stop offset="1" stop-color="#C90000" stop-opacity="0.7" />
		</linearGradient>
		<linearGradient id="paint32_linear_1016_13" x1="161.5" y1="122.5" x2="161.5" y2="205.5" gradientUnits="userSpaceOnUse">
			<stop stop-color="#FF0000" stop-opacity="0.5" />
			<stop offset="1" stop-color="#7FFF00" stop-opacity="0.5" />
		</linearGradient>
		<linearGradient id="paint33_linear_1016_13" x1="245.409" y1="5.85366" x2="251.893" y2="-74.5772" gradientUnits="userSpaceOnUse">
			<stop stop-color="#0F58C6" stop-opacity="0.4" />
			<stop offset="1" stop-color="#DE2828" stop-opacity="0.7" />
		</linearGradient>
		<linearGradient id="paint34_linear_1016_13" x1="302" y1="-36" x2="219" y2="-36" gradientUnits="userSpaceOnUse">
			<stop stop-color="#FF0000" stop-opacity="0.5" />
			<stop offset="1" stop-color="#7FFF00" stop-opacity="0.5" />
		</linearGradient>
		<linearGradient id="paint35_linear_1016_13" x1="-3.52787" y1="56.5909" x2="81.023" y2="49.4207" gradientUnits="userSpaceOnUse">
			<stop stop-color="#0F58C6" stop-opacity="0.4" />
			<stop offset="1" stop-color="#DE2828" stop-opacity="0.7" />
		</linearGradient>
		<linearGradient id="paint36_linear_1016_13" x1="40.5" y1="0" x2="40.5" y2="83" gradientUnits="userSpaceOnUse">
			<stop stop-color="#FF0000" stop-opacity="0.5" />
			<stop offset="1" stop-color="#7FFF00" stop-opacity="0.5" />
		</linearGradient>
		<linearGradient id="paint37_linear_1016_13" x1="-3.52787" y1="56.5909" x2="81.023" y2="49.4207" gradientUnits="userSpaceOnUse">
			<stop stop-color="#0F58C6" stop-opacity="0.4" />
			<stop offset="1" stop-color="#DE2828" stop-opacity="0.7" />
		</linearGradient>
		<linearGradient id="paint38_linear_1016_13" x1="40.5" y1="0" x2="40.5" y2="83" gradientUnits="userSpaceOnUse">
			<stop stop-color="#FF0000" stop-opacity="0.5" />
			<stop offset="1" stop-color="#7FFF00" stop-opacity="0.5" />
		</linearGradient>
		<linearGradient id="paint39_linear_1016_13" x1="-3.52787" y1="56.5909" x2="81.023" y2="49.4207" gradientUnits="userSpaceOnUse">
			<stop stop-color="#0F58C6" stop-opacity="0.4" />
			<stop offset="1" stop-color="#DE2828" stop-opacity="0.7" />
		</linearGradient>
		<linearGradient id="paint40_linear_1016_13" x1="40.5" y1="0" x2="40.5" y2="83" gradientUnits="userSpaceOnUse">
			<stop stop-color="#FF0000" stop-opacity="0.5" />
			<stop offset="1" stop-color="#7FFF00" stop-opacity="0.5" />
		</linearGradient>
		<linearGradient id="paint41_linear_1016_13" x1="415.761" y1="345.634" x2="415.761" y2="268.902" gradientUnits="userSpaceOnUse">
			<stop stop-color="#45F442" stop-opacity="0.5" />
			<stop offset="1" stop-color="#C90000" stop-opacity="0.7" />
		</linearGradient>
		<linearGradient id="paint42_linear_1016_13" x1="446" y1="307" x2="363" y2="307" gradientUnits="userSpaceOnUse">
			<stop stop-color="#FF0000" stop-opacity="0.5" />
			<stop offset="1" stop-color="#7FFF00" stop-opacity="0.5" />
		</linearGradient>
		<linearGradient id="paint43_linear_1016_13" x1="-0.141114" y1="30.2387" x2="80.5767" y2="30.2387" gradientUnits="userSpaceOnUse">
			<stop stop-color="#45F442" stop-opacity="0.5" />
			<stop offset="1" stop-color="#C90000" stop-opacity="0.7" />
		</linearGradient>
		<linearGradient id="paint44_linear_1016_13" x1="40.5" y1="0" x2="40.5" y2="83" gradientUnits="userSpaceOnUse">
			<stop stop-color="#FF0000" stop-opacity="0.5" />
			<stop offset="1" stop-color="#7FFF00" stop-opacity="0.5" />
		</linearGradient>
		<linearGradient id="paint45_linear_1016_13" x1="-0.141114" y1="30.2387" x2="80.5767" y2="30.2387" gradientUnits="userSpaceOnUse">
			<stop stop-color="#45F442" stop-opacity="0.5" />
			<stop offset="1" stop-color="#C90000" stop-opacity="0.7" />
		</linearGradient>
		<linearGradient id="paint46_linear_1016_13" x1="40.5" y1="0" x2="40.5" y2="83" gradientUnits="userSpaceOnUse">
			<stop stop-color="#FF0000" stop-opacity="0.5" />
			<stop offset="1" stop-color="#7FFF00" stop-opacity="0.5" />
		</linearGradient>
		<linearGradient id="paint47_linear_1016_13" x1="-0.141114" y1="30.2387" x2="80.5767" y2="30.2387" gradientUnits="userSpaceOnUse">
			<stop stop-color="#45F442" stop-opacity="0.5" />
			<stop offset="1" stop-color="#C90000" stop-opacity="0.7" />
		</linearGradient>
		<linearGradient id="paint48_linear_1016_13" x1="40.5" y1="0" x2="40.5" y2="83" gradientUnits="userSpaceOnUse">
			<stop stop-color="#FF0000" stop-opacity="0.5" />
			<stop offset="1" stop-color="#7FFF00" stop-opacity="0.5" />
		</linearGradient>
		<linearGradient id="paint49_linear_1016_13" x1="339.646" y1="222.591" x2="420.077" y2="216.107" gradientUnits="userSpaceOnUse">
			<stop stop-color="#0F58C6" stop-opacity="0.4" />
			<stop offset="1" stop-color="#DE2828" stop-opacity="0.7" />
		</linearGradient>
		<linearGradient id="paint50_linear_1016_13" x1="381.5" y1="166" x2="381.5" y2="249" gradientUnits="userSpaceOnUse">
			<stop stop-color="#FF0000" stop-opacity="0.5" />
			<stop offset="1" stop-color="#7FFF00" stop-opacity="0.5" />
		</linearGradient>
		<linearGradient id="paint51_linear_1016_13" x1="275.859" y1="154.239" x2="356.577" y2="154.239" gradientUnits="userSpaceOnUse">
			<stop stop-color="#45F442" stop-opacity="0.5" />
			<stop offset="1" stop-color="#C90000" stop-opacity="0.7" />
		</linearGradient>
		<linearGradient id="paint52_linear_1016_13" x1="316.5" y1="124" x2="316.5" y2="207" gradientUnits="userSpaceOnUse">
			<stop stop-color="#FF0000" stop-opacity="0.5" />
			<stop offset="1" stop-color="#7FFF00" stop-opacity="0.5" />
		</linearGradient>
		<linearGradient id="paint53_linear_1016_13" x1="205.472" y1="138.591" x2="290.023" y2="131.421" gradientUnits="userSpaceOnUse">
			<stop stop-color="#0F58C6" stop-opacity="0.4" />
			<stop offset="1" stop-color="#DE2828" stop-opacity="0.7" />
		</linearGradient>
		<linearGradient id="paint54_linear_1016_13" x1="249.5" y1="82" x2="249.5" y2="165" gradientUnits="userSpaceOnUse">
			<stop stop-color="#FF0000" stop-opacity="0.5" />
			<stop offset="1" stop-color="#7FFF00" stop-opacity="0.5" />
		</linearGradient>
		<linearGradient id="paint55_linear_1016_13" x1="139.472" y1="96.5909" x2="224.023" y2="89.4207" gradientUnits="userSpaceOnUse">
			<stop stop-color="#0F58C6" stop-opacity="0.4" />
			<stop offset="1" stop-color="#DE2828" stop-opacity="0.7" />
		</linearGradient>
		<linearGradient id="paint56_linear_1016_13" x1="183.5" y1="40" x2="183.5" y2="123" gradientUnits="userSpaceOnUse">
			<stop stop-color="#FF0000" stop-opacity="0.5" />
			<stop offset="1" stop-color="#7FFF00" stop-opacity="0.5" />
		</linearGradient>
		<linearGradient id="paint57_linear_1016_13" x1="-0.134146" y1="52.2387" x2="76.5976" y2="52.2387" gradientUnits="userSpaceOnUse">
			<stop stop-color="#45F442" stop-opacity="0.5" />
			<stop offset="1" stop-color="#C90000" stop-opacity="0.7" />
		</linearGradient>
		<linearGradient id="paint58_linear_1016_13" x1="38.5" y1="22" x2="38.5" y2="105" gradientUnits="userSpaceOnUse">
			<stop stop-color="#FF0000" stop-opacity="0.5" />
			<stop offset="1" stop-color="#7FFF00" stop-opacity="0.5" />
		</linearGradient>
		<linearGradient id="paint59_linear_1016_13" x1="62.8589" y1="93.2387" x2="143.577" y2="93.2387" gradientUnits="userSpaceOnUse">
			<stop stop-color="#45F442" stop-opacity="0.5" />
			<stop offset="1" stop-color="#C90000" stop-opacity="0.7" />
		</linearGradient>
		<linearGradient id="paint60_linear_1016_13" x1="103.5" y1="63" x2="103.5" y2="146" gradientUnits="userSpaceOnUse">
			<stop stop-color="#FF0000" stop-opacity="0.5" />
			<stop offset="1" stop-color="#7FFF00" stop-opacity="0.5" />
		</linearGradient>
		<linearGradient id="paint61_linear_1016_13" x1="126.472" y1="153.591" x2="211.023" y2="146.421" gradientUnits="userSpaceOnUse">
			<stop stop-color="#0F58C6" stop-opacity="0.4" />
			<stop offset="1" stop-color="#DE2828" stop-opacity="0.7" />
		</linearGradient>
		<linearGradient id="paint62_linear_1016_13" x1="170.5" y1="97" x2="170.5" y2="180" gradientUnits="userSpaceOnUse">
			<stop stop-color="#FF0000" stop-opacity="0.5" />
			<stop offset="1" stop-color="#7FFF00" stop-opacity="0.5" />
		</linearGradient>
		<linearGradient id="paint63_linear_1016_13" x1="193.472" y1="194.591" x2="278.023" y2="187.421" gradientUnits="userSpaceOnUse">
			<stop stop-color="#0F58C6" stop-opacity="0.4" />
			<stop offset="1" stop-color="#DE2828" stop-opacity="0.7" />
		</linearGradient>
		<linearGradient id="paint64_linear_1016_13" x1="237.5" y1="138" x2="237.5" y2="221" gradientUnits="userSpaceOnUse">
			<stop stop-color="#FF0000" stop-opacity="0.5" />
			<stop offset="1" stop-color="#7FFF00" stop-opacity="0.5" />
		</linearGradient>
		<clipPath id="clip0_1016_13">
			<rect width="420" height="271" fill="white" />
		</clipPath>
	</defs>
</svg>
