<svg width="569" height="645" viewBox="0 0 569 645" fill="none" xmlns="http://www.w3.org/2000/svg">
	<g clip-path="url(#clip0_928_16)">
		<rect width="569" height="645" fill="#FFF067" />
		<path opacity="0.6" d="M633.958 171.477H545.67C518.581 171.477 496.621 191.871 496.621 217.029C496.621 242.187 518.581 262.581 545.67 262.581H633.958C661.047 262.581 683.007 242.187 683.007 217.029C683.007 191.871 661.047 171.477 633.958 171.477Z" fill="white" />
		<path opacity="0.8" d="M566.972 12.587L490.513 56.731C467.053 70.2755 458.232 98.9176 470.811 120.705C483.39 142.492 512.605 149.174 536.065 135.63L612.525 91.486C635.984 77.9415 644.805 49.2994 632.226 27.5121C619.647 5.72476 590.432 -0.957428 566.972 12.587Z" fill="white" />
		<path d="M429.516 -91.5224L385.372 -15.0628C371.828 8.39686 378.51 37.612 400.297 50.1909C422.084 62.7698 450.727 53.9492 464.271 30.4895L508.415 -45.9701C521.96 -69.4298 515.277 -98.6449 493.49 -111.224C471.703 -123.803 443.061 -114.982 429.516 -91.5224Z" fill="white" />
		<path opacity="0.05" d="M178.425 525.58L222.569 449.121C236.114 425.661 229.432 396.446 207.644 383.867C185.857 371.288 157.215 380.109 143.67 403.568L99.5264 480.028C85.9819 503.488 92.6641 532.703 114.451 545.282C136.239 557.861 164.881 549.04 178.425 525.58Z" fill="white" />
		<path opacity="0.2" d="M349.523 547.014V458.726C349.523 431.637 329.129 409.677 303.971 409.677C278.813 409.677 258.419 431.637 258.419 458.726V547.014C258.419 574.103 278.813 596.063 303.971 596.063C329.129 596.063 349.523 574.103 349.523 547.014Z" fill="white" />
		<path opacity="0.4" d="M508.415 480.028L464.27 403.568C450.726 380.109 422.084 371.288 400.297 383.867C378.509 396.446 371.827 425.661 385.372 449.121L429.516 525.581C443.06 549.04 471.702 557.861 493.489 545.282C515.277 532.703 521.959 503.488 508.415 480.028Z" fill="white" />
		<path opacity="0.5" d="M612.519 342.572L536.06 298.428C512.6 284.884 483.385 291.566 470.806 313.353C458.227 335.14 467.048 363.783 490.507 377.327L566.967 421.471C590.427 435.015 619.642 428.333 632.221 406.546C644.8 384.759 635.979 356.116 612.519 342.572Z" fill="white" />
		<path d="M187.523 253L184.945 244.797H173.062L170.484 253H163.219L174.961 219.18H183.281L195.047 253H187.523ZM178.922 225.648L174.586 239.5H183.422L179.086 225.648H178.922ZM198.094 253V219.18H204.938V253H198.094ZM224.227 227.477C227.414 227.477 229.922 228.625 231.75 230.922C233.594 233.219 234.516 236.391 234.516 240.438C234.516 244.469 233.609 247.641 231.797 249.953C229.984 252.25 227.5 253.398 224.344 253.398C222.547 253.398 220.961 252.992 219.586 252.18C218.227 251.352 217.211 250.219 216.539 248.781H216.398V261.203H209.555V227.875H216.305V232.258H216.445C217.133 230.758 218.148 229.586 219.492 228.742C220.852 227.898 222.43 227.477 224.227 227.477ZM221.93 247.891C223.633 247.891 224.984 247.219 225.984 245.875C227 244.531 227.508 242.719 227.508 240.438C227.508 238.156 227 236.344 225.984 235C224.984 233.641 223.633 232.961 221.93 232.961C220.258 232.961 218.914 233.648 217.898 235.023C216.883 236.383 216.375 238.188 216.375 240.438C216.375 242.703 216.875 244.516 217.875 245.875C218.891 247.219 220.242 247.891 221.93 247.891ZM238.219 253V219.18H244.945V232.352H245.086C245.758 230.758 246.766 229.539 248.109 228.695C249.469 227.836 251.094 227.406 252.984 227.406C255.75 227.406 257.898 228.25 259.43 229.938C260.977 231.609 261.75 233.906 261.75 236.828V253H254.906V238.281C254.906 236.641 254.5 235.367 253.688 234.461C252.891 233.539 251.727 233.078 250.195 233.078C248.602 233.078 247.344 233.594 246.422 234.625C245.516 235.641 245.062 236.984 245.062 238.656V253H238.219ZM275.836 248.453C277.352 248.453 278.633 248.016 279.68 247.141C280.742 246.25 281.273 245.133 281.273 243.789V241.961L275.977 242.289C274.695 242.383 273.703 242.703 273 243.25C272.312 243.797 271.969 244.516 271.969 245.406C271.969 246.344 272.32 247.086 273.023 247.633C273.727 248.18 274.664 248.453 275.836 248.453ZM273.586 253.398C271.164 253.398 269.156 252.688 267.562 251.266C265.969 249.844 265.172 248.016 265.172 245.781C265.172 243.5 266.016 241.711 267.703 240.414C269.391 239.117 271.805 238.375 274.945 238.188L281.273 237.812V236.148C281.273 234.992 280.891 234.086 280.125 233.43C279.375 232.773 278.352 232.445 277.055 232.445C275.805 232.445 274.781 232.727 273.984 233.289C273.203 233.852 272.727 234.609 272.555 235.562H266.297C266.422 233.094 267.477 231.109 269.461 229.609C271.445 228.094 274.078 227.336 277.359 227.336C280.578 227.336 283.156 228.102 285.094 229.633C287.031 231.164 288 233.195 288 235.727V253H281.391V249.156H281.25C280.562 250.469 279.516 251.508 278.109 252.273C276.703 253.023 275.195 253.398 273.586 253.398ZM307.992 253H293.016V219.18H307.734C310.906 219.18 313.422 219.938 315.281 221.453C317.141 222.969 318.07 225.023 318.07 227.617C318.07 229.461 317.461 231.078 316.242 232.469C315.039 233.859 313.531 234.688 311.719 234.953V235.141C314.031 235.312 315.938 236.164 317.438 237.695C318.938 239.227 319.688 241.102 319.688 243.32C319.688 246.305 318.641 248.664 316.547 250.398C314.453 252.133 311.602 253 307.992 253ZM300.094 224.453V233.242H305.18C307.07 233.242 308.531 232.852 309.562 232.07C310.594 231.273 311.109 230.156 311.109 228.719C311.109 227.359 310.656 226.312 309.75 225.578C308.844 224.828 307.562 224.453 305.906 224.453H300.094ZM300.094 247.727H306.188C308.234 247.727 309.789 247.305 310.852 246.461C311.93 245.602 312.469 244.367 312.469 242.758C312.469 241.18 311.914 239.977 310.805 239.148C309.711 238.32 308.117 237.906 306.023 237.906H300.094V247.727ZM323.133 253V227.875H329.742V232.398H329.883C330.32 230.805 331.055 229.586 332.086 228.742C333.117 227.898 334.375 227.477 335.859 227.477C336.578 227.477 337.227 227.562 337.805 227.734V233.758C337.164 233.492 336.336 233.359 335.32 233.359C333.633 233.359 332.32 233.852 331.383 234.836C330.445 235.82 329.977 237.195 329.977 238.961V253H323.133ZM349.711 248.453C351.227 248.453 352.508 248.016 353.555 247.141C354.617 246.25 355.148 245.133 355.148 243.789V241.961L349.852 242.289C348.57 242.383 347.578 242.703 346.875 243.25C346.188 243.797 345.844 244.516 345.844 245.406C345.844 246.344 346.195 247.086 346.898 247.633C347.602 248.18 348.539 248.453 349.711 248.453ZM347.461 253.398C345.039 253.398 343.031 252.688 341.438 251.266C339.844 249.844 339.047 248.016 339.047 245.781C339.047 243.5 339.891 241.711 341.578 240.414C343.266 239.117 345.68 238.375 348.82 238.188L355.148 237.812V236.148C355.148 234.992 354.766 234.086 354 233.43C353.25 232.773 352.227 232.445 350.93 232.445C349.68 232.445 348.656 232.727 347.859 233.289C347.078 233.852 346.602 234.609 346.43 235.562H340.172C340.297 233.094 341.352 231.109 343.336 229.609C345.32 228.094 347.953 227.336 351.234 227.336C354.453 227.336 357.031 228.102 358.969 229.633C360.906 231.164 361.875 233.195 361.875 235.727V253H355.266V249.156H355.125C354.438 250.469 353.391 251.508 351.984 252.273C350.578 253.023 349.07 253.398 347.461 253.398ZM368.133 222.086H374.977V227.875H379.617V233.031H374.977V245.055C374.977 246.945 375.961 247.891 377.93 247.891C378.57 247.891 379.125 247.852 379.594 247.773V252.812C378.797 253 377.711 253.094 376.336 253.094C373.383 253.094 371.273 252.562 370.008 251.5C368.758 250.438 368.133 248.68 368.133 246.227V233.031H364.594V227.875H368.133V222.086ZM394.266 232.398C392.781 232.398 391.539 232.906 390.539 233.922C389.555 234.938 389 236.234 388.875 237.812H399.539C399.461 236.203 398.938 234.898 397.969 233.898C397.016 232.898 395.781 232.398 394.266 232.398ZM399.633 245.312H405.914C405.539 247.781 404.305 249.773 402.211 251.289C400.133 252.789 397.547 253.539 394.453 253.539C390.594 253.539 387.562 252.383 385.359 250.07C383.172 247.758 382.078 244.586 382.078 240.555C382.078 236.539 383.172 233.336 385.359 230.945C387.547 228.539 390.492 227.336 394.195 227.336C397.836 227.336 400.734 228.477 402.891 230.758C405.047 233.039 406.125 236.094 406.125 239.922V242.008H388.805V242.43C388.805 244.227 389.328 245.688 390.375 246.812C391.438 247.922 392.836 248.477 394.57 248.477C395.82 248.477 396.898 248.195 397.805 247.633C398.711 247.055 399.32 246.281 399.633 245.312Z" fill="black" />
		<path d="M125.812 338.781C118.854 338.781 113.385 336.74 109.406 332.656C105.427 328.552 103.438 322.812 103.438 315.438C103.438 308.062 105.427 302.333 109.406 298.25C113.385 294.167 118.854 292.125 125.812 292.125C129.75 292.125 133.302 292.917 136.469 294.5C139.656 296.083 142.167 298.323 144 301.219C145.833 304.115 146.75 307.396 146.75 311.062H134.062C133.917 308.5 133.083 306.438 131.562 304.875C130.042 303.312 128.125 302.531 125.812 302.531C123.083 302.531 120.917 303.677 119.312 305.969C117.729 308.26 116.938 311.406 116.938 315.406C116.938 319.469 117.729 322.646 119.312 324.938C120.896 327.229 123.073 328.375 125.844 328.375C128.135 328.375 130.031 327.604 131.531 326.062C133.052 324.5 133.917 322.417 134.125 319.812H146.812C146.792 323.5 145.875 326.792 144.062 329.688C142.271 332.583 139.781 334.823 136.594 336.406C133.427 337.99 129.833 338.781 125.812 338.781ZM168.375 338.875C162.708 338.875 158.271 337.302 155.062 334.156C151.854 330.99 150.25 326.51 150.25 320.719C150.25 315.073 151.875 310.646 155.125 307.438C158.396 304.229 162.812 302.625 168.375 302.625C173.979 302.625 178.406 304.229 181.656 307.438C184.906 310.625 186.531 315.052 186.531 320.719C186.531 326.51 184.927 330.99 181.719 334.156C178.51 337.302 174.062 338.875 168.375 338.875ZM168.375 329.719C169.979 329.719 171.24 328.938 172.156 327.375C173.073 325.812 173.531 323.604 173.531 320.75C173.531 317.958 173.062 315.771 172.125 314.188C171.208 312.583 169.958 311.781 168.375 311.781C166.792 311.781 165.542 312.583 164.625 314.188C163.708 315.771 163.25 317.958 163.25 320.75C163.25 323.625 163.698 325.844 164.594 327.406C165.49 328.948 166.75 329.719 168.375 329.719ZM190.5 338V303.5H203V310.469H203.25C203.896 308.135 205.115 306.281 206.906 304.906C208.698 303.51 210.771 302.812 213.125 302.812C215.75 302.812 217.896 303.479 219.562 304.812C221.25 306.125 222.302 307.99 222.719 310.406H222.969C223.552 308.115 224.802 306.281 226.719 304.906C228.656 303.51 230.938 302.812 233.562 302.812C236.917 302.812 239.646 303.917 241.75 306.125C243.854 308.312 244.906 311.167 244.906 314.688V338H232.094V318C232.094 314.729 230.698 313.094 227.906 313.094C226.615 313.094 225.604 313.531 224.875 314.406C224.146 315.26 223.781 316.448 223.781 317.969V338H211.625V318.031C211.625 314.74 210.24 313.094 207.469 313.094C206.177 313.094 205.156 313.531 204.406 314.406C203.677 315.281 203.312 316.469 203.312 317.969V338H190.5ZM249.625 338V303.5H262.125V310.469H262.375C263.021 308.135 264.24 306.281 266.031 304.906C267.823 303.51 269.896 302.812 272.25 302.812C274.875 302.812 277.021 303.479 278.688 304.812C280.375 306.125 281.427 307.99 281.844 310.406H282.094C282.677 308.115 283.927 306.281 285.844 304.906C287.781 303.51 290.062 302.812 292.688 302.812C296.042 302.812 298.771 303.917 300.875 306.125C302.979 308.312 304.031 311.167 304.031 314.688V338H291.219V318C291.219 314.729 289.823 313.094 287.031 313.094C285.74 313.094 284.729 313.531 284 314.406C283.271 315.26 282.906 316.448 282.906 317.969V338H270.75V318.031C270.75 314.74 269.365 313.094 266.594 313.094C265.302 313.094 264.281 313.531 263.531 314.406C262.802 315.281 262.438 316.469 262.438 317.969V338H249.625ZM343.938 303.5V338H331.438V331.219H331.188C330.479 333.615 329.302 335.458 327.656 336.75C326.031 338.042 323.958 338.688 321.438 338.688C317.646 338.688 314.552 337.521 312.156 335.188C309.781 332.833 308.594 329.646 308.594 325.625V303.5H321.406V322.75C321.406 324.542 321.854 325.927 322.75 326.906C323.646 327.865 324.854 328.344 326.375 328.344C327.812 328.344 328.958 327.833 329.812 326.812C330.688 325.792 331.125 324.448 331.125 322.781V303.5H343.938ZM348.75 338V303.5H361.25V310.281H361.5C362.375 307.844 363.708 305.99 365.5 304.719C367.292 303.448 369.49 302.812 372.094 302.812C375.948 302.812 378.906 303.958 380.969 306.25C383.052 308.521 384.094 311.74 384.094 315.906V338H371.281V318.75C371.281 316.979 370.865 315.604 370.031 314.625C369.219 313.646 368.021 313.156 366.438 313.156C364.938 313.156 363.75 313.677 362.875 314.719C362 315.74 361.562 317.073 361.562 318.719V338H348.75ZM388.75 338V303.5H401.562V338H388.75ZM399.688 299.875C398.479 301.021 396.969 301.594 395.156 301.594C393.344 301.594 391.823 301.021 390.594 299.875C389.385 298.708 388.781 297.26 388.781 295.531C388.781 293.802 389.385 292.365 390.594 291.219C391.823 290.052 393.344 289.469 395.156 289.469C396.969 289.469 398.479 290.052 399.688 291.219C400.917 292.365 401.531 293.802 401.531 295.531C401.531 297.26 400.917 298.708 399.688 299.875ZM409.469 295.938H422.281V303.5H428.344V312.781H422.281V325.531C422.281 327.719 423.573 328.812 426.156 328.812C426.99 328.812 427.719 328.76 428.344 328.656V337.531C426.823 337.844 425.062 338 423.062 338C418.208 338 414.729 337.25 412.625 335.75C410.521 334.25 409.469 331.792 409.469 328.375V312.781H404.906V303.5H409.469V295.938ZM438.438 350.656H433.875V341.125H436.344C438.156 341.125 439.479 340.948 440.312 340.594C441.167 340.26 441.594 339.708 441.594 338.938C441.594 338.625 441.542 338.312 441.438 338L430.125 303.5H444.344L449.594 328.812H449.844L455.062 303.5H468.594L458.312 337.188C456.854 341.979 454.573 345.417 451.469 347.5C448.385 349.604 444.042 350.656 438.438 350.656Z" fill="black" />
	</g>
	<defs>
		<clipPath id="clip0_928_16">
			<rect width="569" height="645" fill="white" />
		</clipPath>
	</defs>
</svg>
