<svg width="1083" height="1079" viewBox="0 0 1083 1079" fill="none" xmlns="http://www.w3.org/2000/svg">
	<path opacity="0.6" d="M858.837 566.059L775.242 537.656C749.593 528.941 722.24 541.186 714.146 565.007C706.053 588.827 720.284 615.202 745.933 623.917L829.527 652.32C855.176 661.035 882.53 648.789 890.623 624.969C898.717 601.148 884.486 574.773 858.837 566.059Z" fill="white" />
	<path opacity="0.8" d="M846.526 394.066L759.929 411.266C733.359 416.543 715.793 440.825 720.694 465.5C725.595 490.176 751.108 505.902 777.678 500.625L864.274 483.425C890.844 478.148 908.41 453.866 903.509 429.19C898.608 404.515 873.096 388.789 846.526 394.066Z" fill="white" />
	<path d="M749.871 251.27L683.476 309.463C663.104 327.319 660.032 357.13 676.615 376.05C693.197 394.969 723.154 395.832 743.526 377.977L809.921 319.783C830.293 301.928 833.364 272.116 816.782 253.197C800.2 234.278 770.243 233.415 749.871 251.27Z" fill="white" />
	<path opacity="0.05" d="M313.598 754.788L379.993 696.595C400.364 678.74 403.436 648.928 386.854 630.009C370.272 611.089 340.314 610.227 319.943 628.082L253.548 686.275C233.176 704.13 230.104 733.942 246.687 752.861C263.269 771.781 293.226 772.644 313.598 754.788Z" fill="white" />
	<path opacity="0.2" d="M468.708 830.126L497.111 746.532C505.826 720.883 493.58 693.529 469.76 685.436C445.939 677.342 419.564 691.574 410.85 717.223L382.447 800.817C373.732 826.466 385.978 853.82 409.798 861.913C433.618 870.007 459.993 855.775 468.708 830.126Z" fill="white" />
	<path opacity="0.4" d="M640.704 817.819L623.504 731.223C618.227 704.653 593.945 687.087 569.27 691.988C544.594 696.889 528.868 722.401 534.145 748.971L551.345 835.567C556.622 862.137 580.904 879.703 605.58 874.802C630.256 869.901 645.981 844.389 640.704 817.819Z" fill="white" />
	<path opacity="0.5" d="M783.496 721.162L725.302 654.767C707.447 634.395 677.635 631.324 658.716 647.906C639.797 664.488 638.934 694.445 656.789 714.817L714.983 781.212C732.838 801.584 762.649 804.655 781.569 788.073C800.488 771.491 801.351 741.534 783.496 721.162Z" fill="white" />
	<path d="M243 557.002L471 293V821L243 557.002Z" fill="#777777" />
	<path d="M585 425L471 293V557L585 425Z" fill="#525252" />
	<path d="M585 689L471 557V821L585 689Z" fill="#525252" />
</svg>
