<svg width="404" height="404" viewBox="0 0 404 404" fill="none" xmlns="http://www.w3.org/2000/svg">
	<path opacity="0.9" d="M377.598 177.601H330.579C316.152 177.601 304.457 188.462 304.457 201.861C304.457 215.259 316.152 226.12 330.579 226.12H377.598C392.025 226.12 403.72 215.259 403.72 201.861C403.72 188.462 392.025 177.601 377.598 177.601Z" fill="white" />
	<path d="M341.924 92.9818L301.204 116.491C288.71 123.705 284.013 138.959 290.712 150.562C297.411 162.165 312.97 165.724 325.464 158.51L366.184 135.001C378.677 127.787 383.375 112.534 376.676 100.93C369.977 89.3271 354.418 85.7684 341.924 92.9818Z" fill="white" fill-opacity="0.95" />
	<path d="M268.719 37.5365L245.209 78.2563C237.996 90.7502 241.555 106.309 253.158 113.008C264.761 119.707 280.015 115.01 287.228 102.516L310.738 61.7962C317.951 49.3023 314.393 33.7433 302.789 27.0442C291.186 20.3451 275.932 25.0427 268.719 37.5365Z" fill="white" />
	<path opacity="0.1" d="M92.9803 61.7961L116.49 102.516C123.703 115.01 138.957 119.707 150.56 113.008C162.163 106.309 165.722 90.7502 158.509 78.2563L134.999 37.5365C127.786 25.0426 112.532 20.345 100.929 27.0442C89.3257 33.7433 85.767 49.3023 92.9803 61.7961Z" fill="white" />
	<path opacity="0.2" d="M37.5369 135.001L78.2568 158.51C90.7506 165.724 106.31 162.165 113.009 150.562C119.708 138.959 115.01 123.705 102.516 116.491L61.7966 92.9818C49.3027 85.7685 33.7438 89.3272 27.0447 100.93C20.3455 112.534 25.0431 127.787 37.5369 135.001Z" fill="white" />
	<path opacity="0.3" d="M26.1207 226.12H73.1399C87.5666 226.12 99.2617 215.259 99.2617 201.861C99.2617 188.462 87.5666 177.601 73.1399 177.601H26.1207C11.6941 177.601 -0.00105286 188.462 -0.00105286 201.861C-0.00105286 215.259 11.6941 226.12 26.1207 226.12Z" fill="white" />
	<path opacity="0.4" d="M61.7948 310.74L102.515 287.23C115.008 280.017 119.706 264.763 113.007 253.16C106.308 241.556 90.7488 237.998 78.2549 245.211L37.5351 268.721C25.0412 275.934 20.3437 291.188 27.0428 302.791C33.7419 314.394 49.3009 317.953 61.7948 310.74Z" fill="white" />
	<path opacity="0.5" d="M135 366.185L158.509 325.465C165.723 312.971 162.164 297.412 150.561 290.713C138.958 284.014 123.704 288.712 116.49 301.205L92.9809 341.925C85.7675 354.419 89.3262 369.978 100.929 376.677C112.533 383.376 127.786 378.679 135 366.185Z" fill="white" />
	<path opacity="0.6" d="M226.121 377.6V330.58C226.121 316.154 215.26 304.459 201.861 304.459C188.463 304.459 177.602 316.154 177.602 330.58V377.6C177.602 392.026 188.463 403.721 201.861 403.721C215.26 403.721 226.121 392.026 226.121 377.6Z" fill="white" />
	<path opacity="0.7" d="M310.738 341.925L287.229 301.205C280.016 288.712 264.762 284.014 253.158 290.713C241.555 297.412 237.997 312.971 245.21 325.465L268.72 366.185C275.933 378.679 291.187 383.376 302.79 376.677C314.393 369.978 317.952 354.419 310.738 341.925Z" fill="white" />
	<path opacity="0.8" d="M366.186 268.721L325.466 245.211C312.972 237.998 297.413 241.556 290.714 253.16C284.015 264.763 288.712 280.017 301.206 287.23L341.926 310.74C354.42 317.953 369.979 314.394 376.678 302.791C383.377 291.188 378.68 275.934 366.186 268.721Z" fill="white" />
</svg>
