<svg width="932" height="438" viewBox="0 0 932 438" fill="none" xmlns="http://www.w3.org/2000/svg">
<g clip-path="url(#clip0_203_45)">
<rect width="932" height="438" fill="url(#paint0_linear_203_45)"/>
<g clip-path="url(#clip1_203_45)">
<mask id="mask0_203_45" style="mask-type:luminance" maskUnits="userSpaceOnUse" x="-336" y="20" width="1626" height="362">
<path d="M1290 96.0985L-315.185 20L-335.658 305.506L1269.53 381.604L1290 96.0985Z" fill="white"/>
</mask>
<g mask="url(#mask0_203_45)">
<mask id="mask1_203_45" style="mask-type:luminance" maskUnits="userSpaceOnUse" x="-336" y="20" width="1626" height="362">
<path d="M1290 96.0985L-315.185 20L-335.658 305.506L1269.53 381.604L1290 96.0985Z" fill="white"/>
</mask>
<g mask="url(#mask1_203_45)">
<path d="M490.132 201.949C613.581 238.764 867.611 309.518 896.153 310.758C960.809 313.567 1207.51 307.363 1191.95 304.199C949.443 309.235 766.08 279.823 490.132 201.949Z" fill="#995D5D"/>
<path d="M210.106 133.617C144.519 116.566 107.616 107.002 41.3537 89.927C-85.7109 80.663 -150.759 89.5193 -254.574 101.635C-79.2608 95.7365 59.823 105.284 210.106 133.617Z" fill="#995D5D"/>
<path d="M-430.105 111.521C-367.138 106.798 -309.103 103.469 -254.573 101.635M-254.573 101.635C-150.759 89.5194 -85.7107 80.663 41.3539 89.9271C107.617 107.002 144.519 116.566 210.107 133.617M-254.573 101.635C-79.2605 95.7365 59.8233 105.284 210.107 133.617M490.132 201.949C613.581 238.764 867.611 309.518 896.153 310.758C960.809 313.567 1207.51 307.363 1191.95 304.199M490.132 201.949C766.08 279.822 949.443 309.235 1191.95 304.199M490.132 201.949C387.021 172.507 296.705 149.943 210.107 133.617M1191.95 304.199C1259.13 302.802 1330.87 298.763 1410.36 292.375" stroke="#995D5D" stroke-width="9"/>
</g>
</g>
</g>
<g clip-path="url(#clip2_203_45)">
<mask id="mask2_203_45" style="mask-type:luminance" maskUnits="userSpaceOnUse" x="-357" y="96" width="1632" height="393">
<path d="M1245.45 96L-357 203.614L-328.048 488.634L1274.41 381.02L1245.45 96Z" fill="white"/>
</mask>
<g mask="url(#mask2_203_45)">
<mask id="mask3_203_45" style="mask-type:luminance" maskUnits="userSpaceOnUse" x="-357" y="96" width="1632" height="393">
<path d="M1245.45 96L-357 203.614L-328.048 488.634L1274.41 381.02L1245.45 96Z" fill="white"/>
</mask>
<g mask="url(#mask3_203_45)">
<path d="M471.732 291.975C600.31 314.356 864.029 355.457 892.504 353.431C957.006 348.843 1200.2 314.581 1184.25 313.221C945.005 345.849 758.382 337.627 471.732 291.975Z" fill="#995D5D"/>
<path d="M182.692 256.236C114.812 246.829 76.6254 241.566 8.07314 232.212C-119.334 237.522 -182.213 253.705 -282.914 277.534C-110.349 251.712 29.0077 245.312 182.692 256.236Z" fill="#995D5D"/>
<path d="M-455.008 307.33C-393.477 295.477 -336.589 285.566 -282.914 277.534M-282.914 277.534C-182.213 253.705 -119.334 237.522 8.07294 232.212C76.6252 241.566 114.812 246.829 182.692 256.236M-282.914 277.534C-110.349 251.712 29.0075 245.312 182.692 256.236M471.732 291.975C600.31 314.356 864.03 355.457 892.504 353.431C957.006 348.843 1200.2 314.581 1184.25 313.221M471.732 291.975C758.382 337.627 945.005 345.849 1184.25 313.221M471.732 291.975C364.564 274.577 271.249 262.53 182.692 256.236M1184.25 313.221C1250.53 304.181 1320.86 292.005 1398.47 276.619" stroke="#995D5D" stroke-width="9"/>
</g>
</g>
</g>
</g>
<defs>
<linearGradient id="paint0_linear_203_45" x1="-43.6875" y1="551.606" x2="954.271" y2="-90.3848" gradientUnits="userSpaceOnUse">
<stop stop-color="#3E688F"/>
<stop offset="0.535" stop-color="#52775F"/>
<stop offset="1" stop-color="#968E48"/>
</linearGradient>
<clipPath id="clip0_203_45">
<rect width="932" height="438" fill="white"/>
</clipPath>
<clipPath id="clip1_203_45">
<rect width="1606.99" height="286.239" fill="white" transform="matrix(0.998878 0.0473548 -0.0715243 0.997439 -315.185 20)"/>
</clipPath>
<clipPath id="clip2_203_45">
<rect width="1606.06" height="286.487" fill="white" transform="matrix(0.997753 -0.0670047 0.101058 0.99488 -357 203.614)"/>
</clipPath>
</defs>
</svg>
