<svg width="569" height="645" viewBox="0 0 569 645" fill="none" xmlns="http://www.w3.org/2000/svg">
	<g clip-path="url(#clip0_946_16)">
		<rect width="569" height="645" fill="#FFF067" />
		<path opacity="0.6" d="M633.958 171.477H545.67C518.581 171.477 496.621 191.871 496.621 217.029C496.621 242.187 518.581 262.581 545.67 262.581H633.958C661.047 262.581 683.007 242.187 683.007 217.029C683.007 191.871 661.047 171.477 633.958 171.477Z" fill="white" />
		<path opacity="0.8" d="M566.972 12.587L490.513 56.731C467.053 70.2755 458.232 98.9176 470.811 120.705C483.39 142.492 512.605 149.174 536.065 135.63L612.525 91.486C635.984 77.9415 644.805 49.2994 632.226 27.5121C619.647 5.72476 590.432 -0.957428 566.972 12.587Z" fill="white" />
		<path d="M429.516 -91.5224L385.372 -15.0628C371.828 8.39686 378.51 37.612 400.297 50.1909C422.084 62.7698 450.727 53.9492 464.271 30.4895L508.415 -45.9701C521.96 -69.4298 515.277 -98.6449 493.49 -111.224C471.703 -123.803 443.061 -114.982 429.516 -91.5224Z" fill="white" />
		<path opacity="0.05" d="M178.425 525.58L222.569 449.121C236.114 425.661 229.432 396.446 207.644 383.867C185.857 371.288 157.215 380.109 143.67 403.568L99.5264 480.028C85.9819 503.488 92.6641 532.703 114.451 545.282C136.239 557.861 164.881 549.04 178.425 525.58Z" fill="white" />
		<path opacity="0.2" d="M349.523 547.014V458.726C349.523 431.637 329.129 409.677 303.971 409.677C278.813 409.677 258.419 431.637 258.419 458.726V547.014C258.419 574.103 278.813 596.063 303.971 596.063C329.129 596.063 349.523 574.103 349.523 547.014Z" fill="white" />
		<path opacity="0.4" d="M508.415 480.028L464.27 403.568C450.726 380.109 422.084 371.288 400.297 383.867C378.509 396.446 371.827 425.661 385.372 449.121L429.516 525.581C443.06 549.04 471.702 557.861 493.489 545.282C515.277 532.703 521.959 503.488 508.415 480.028Z" fill="white" />
		<path opacity="0.5" d="M612.519 342.572L536.06 298.428C512.6 284.884 483.385 291.566 470.806 313.353C458.227 335.14 467.048 363.783 490.507 377.327L566.967 421.471C590.427 435.015 619.642 428.333 632.221 406.546C644.8 384.759 635.979 356.116 612.519 342.572Z" fill="white" />
	</g>
	<defs>
		<clipPath id="clip0_946_16">
			<rect width="569" height="645" fill="white" />
		</clipPath>
	</defs>
</svg>
