<svg width="2912" height="811" viewBox="0 0 2912 811" fill="none" xmlns="http://www.w3.org/2000/svg">
	<path d="M0 405.385L351.074 0V810.77L0 405.385Z" fill="#777777" />
	<path d="M526.611 202.699L351.074 0.00732422V405.391L526.611 202.699Z" fill="#525252" />
	<path d="M526.611 608.072L351.074 405.379V810.764L526.611 608.072Z" fill="#525252" />
	<mask id="mask0_963_16" style="mask-type:luminance" maskUnits="userSpaceOnUse" x="610" y="119" width="2302" height="573">
		<path d="M2911.55 119.766H610.727V691.004H2911.55V119.766Z" fill="white" />
	</mask>
	<g mask="url(#mask0_963_16)">
		<path d="M785.907 442.707H675.087L656.046 496.784H610.727L705.553 231.729H755.822L850.647 496.784H804.948L785.907 442.707ZM773.721 407.29L730.687 284.283L687.273 407.29H773.721ZM935.292 214.973V496.784H891.878V214.973H935.292ZM1035.7 317.796C1043.07 308.148 1053.1 300.024 1065.79 293.423C1078.48 286.822 1092.83 283.522 1108.82 283.522C1127.1 283.522 1143.73 288.091 1158.71 297.231C1173.94 306.117 1185.88 318.684 1194.51 334.933C1203.14 351.182 1207.46 369.842 1207.46 390.914C1207.46 411.987 1203.14 430.901 1194.51 447.657C1185.88 464.16 1173.94 477.108 1158.71 486.501C1143.73 495.641 1127.1 500.211 1108.82 500.211C1092.83 500.211 1078.61 497.038 1066.17 490.691C1053.73 484.09 1043.58 475.965 1035.7 466.318V596.56H992.291V286.949H1035.7V317.796ZM1163.28 390.914C1163.28 376.443 1160.23 364.003 1154.14 353.593C1148.3 342.93 1140.43 334.933 1130.53 329.601C1120.88 324.016 1110.47 321.223 1099.3 321.223C1088.39 321.223 1077.98 324.016 1068.07 329.601C1058.43 335.187 1050.56 343.311 1044.46 353.974C1038.62 364.637 1035.7 377.205 1035.7 391.676C1035.7 406.147 1038.62 418.842 1044.46 429.759C1050.56 440.422 1058.43 448.546 1068.07 454.131C1077.98 459.717 1088.39 462.51 1099.3 462.51C1110.47 462.51 1120.88 459.717 1130.53 454.131C1140.43 448.292 1148.3 439.914 1154.14 428.997C1160.23 418.08 1163.28 405.386 1163.28 390.914ZM1358.92 283.522C1374.92 283.522 1389.14 286.949 1401.57 293.804C1414.27 300.659 1424.17 310.814 1431.28 324.27C1438.64 337.726 1442.32 353.974 1442.32 373.016V496.784H1399.29V379.49C1399.29 360.702 1394.59 346.358 1385.2 336.456C1375.81 326.301 1362.99 321.223 1346.74 321.223C1330.49 321.223 1317.54 326.301 1307.89 336.456C1298.5 346.358 1293.8 360.702 1293.8 379.49V496.784H1250.39V214.973H1293.8V311.322C1301.17 302.436 1310.43 295.581 1321.6 290.757C1333.03 285.933 1345.47 283.522 1358.92 283.522ZM1483.23 390.914C1483.23 369.842 1487.55 351.182 1496.18 334.933C1505.06 318.684 1517 306.117 1531.98 297.231C1547.21 288.091 1563.97 283.522 1582.24 283.522C1598.75 283.522 1613.09 286.822 1625.28 293.423C1637.72 299.77 1647.62 307.767 1654.98 317.415V286.949H1698.78V496.784H1654.98V465.556C1647.62 475.458 1637.59 483.709 1624.9 490.31C1612.2 496.911 1597.73 500.211 1581.48 500.211C1563.46 500.211 1546.95 495.641 1531.98 486.501C1517 477.108 1505.06 464.16 1496.18 447.657C1487.55 430.901 1483.23 411.987 1483.23 390.914ZM1654.98 391.676C1654.98 377.205 1651.94 364.637 1645.84 353.974C1640 343.311 1632.26 335.187 1622.61 329.601C1612.96 324.016 1602.56 321.223 1591.38 321.223C1580.21 321.223 1569.8 324.016 1560.16 329.601C1550.51 334.933 1542.64 342.93 1536.55 353.593C1530.71 364.003 1527.79 376.443 1527.79 390.914C1527.79 405.386 1530.71 418.08 1536.55 428.997C1542.64 439.914 1550.51 448.292 1560.16 454.131C1570.06 459.717 1580.47 462.51 1591.38 462.51C1602.56 462.51 1612.96 459.717 1622.61 454.131C1632.26 448.546 1640 440.422 1645.84 429.759C1651.94 418.842 1654.98 406.147 1654.98 391.676ZM1890.39 360.829C1904.61 363.368 1916.67 370.858 1926.57 383.298C1936.47 395.738 1941.42 409.829 1941.42 425.569C1941.42 439.025 1937.87 451.212 1930.76 462.129C1923.9 472.792 1913.88 481.297 1900.67 487.644C1887.47 493.737 1872.11 496.784 1854.59 496.784H1748.73V232.11H1849.64C1867.67 232.11 1883.16 235.157 1896.1 241.25C1909.05 247.343 1918.83 255.594 1925.43 266.004C1932.03 276.159 1935.33 287.584 1935.33 300.278C1935.33 315.511 1931.27 328.205 1923.14 338.36C1915.02 348.516 1904.1 356.005 1890.39 360.829ZM1792.14 343.311H1845.84C1860.05 343.311 1871.1 340.138 1878.97 333.791C1887.09 327.19 1891.15 317.796 1891.15 305.609C1891.15 293.677 1887.09 284.41 1878.97 277.809C1871.1 270.954 1860.05 267.527 1845.84 267.527H1792.14V343.311ZM1850.79 461.367C1865.51 461.367 1877.06 457.813 1885.44 450.704C1893.82 443.595 1898.01 433.694 1898.01 421C1898.01 408.051 1893.57 397.769 1884.68 390.153C1875.79 382.536 1863.99 378.728 1849.26 378.728H1792.14V461.367H1850.79ZM2032.02 317.415C2038.37 306.752 2046.74 298.501 2057.15 292.661C2067.82 286.568 2080.38 283.522 2094.86 283.522V328.459H2083.81C2066.8 328.459 2053.85 332.775 2044.97 341.407C2036.34 350.039 2032.02 365.018 2032.02 386.344V496.784H1988.61V286.949H2032.02V317.415ZM2120.28 390.914C2120.28 369.842 2124.6 351.182 2133.23 334.933C2142.12 318.684 2154.05 306.117 2169.03 297.231C2184.26 288.091 2201.02 283.522 2219.3 283.522C2235.8 283.522 2250.15 286.822 2262.33 293.423C2274.77 299.77 2284.67 307.767 2292.04 317.415V286.949H2335.83V496.784H2292.04V465.556C2284.67 475.458 2274.65 483.709 2261.95 490.31C2249.26 496.911 2234.79 500.211 2218.54 500.211C2200.51 500.211 2184.01 495.641 2169.03 486.501C2154.05 477.108 2142.12 464.16 2133.23 447.657C2124.6 430.901 2120.28 411.987 2120.28 390.914ZM2292.04 391.676C2292.04 377.205 2288.99 364.637 2282.9 353.974C2277.06 343.311 2269.31 335.187 2259.67 329.601C2250.02 324.016 2239.61 321.223 2228.44 321.223C2217.27 321.223 2206.86 324.016 2197.21 329.601C2187.56 334.933 2179.69 342.93 2173.6 353.593C2167.76 364.003 2164.84 376.443 2164.84 390.914C2164.84 405.386 2167.76 418.08 2173.6 428.997C2179.69 439.914 2187.56 448.292 2197.21 454.131C2207.11 459.717 2217.52 462.51 2228.44 462.51C2239.61 462.51 2250.02 459.717 2259.67 454.131C2269.31 448.546 2277.06 440.422 2282.9 429.759C2288.99 418.842 2292.04 406.147 2292.04 391.676ZM2443.51 322.366V438.517C2443.51 446.388 2445.29 452.1 2448.84 455.655C2452.65 458.955 2459 460.605 2467.88 460.605H2494.54V496.784H2460.27C2440.72 496.784 2425.74 492.214 2415.33 483.074C2404.92 473.934 2399.71 459.082 2399.71 438.517V322.366H2374.96V286.949H2399.71V234.776H2443.51V286.949H2494.54V322.366H2443.51ZM2726.87 386.725C2726.87 394.596 2726.36 401.704 2725.34 408.051H2565.02C2566.29 424.808 2572.51 438.264 2583.68 448.419C2594.85 458.574 2608.56 463.652 2624.81 463.652C2648.16 463.652 2664.67 453.877 2674.31 434.328H2721.16C2714.81 453.624 2703.26 469.491 2686.5 481.932C2670 494.118 2649.43 500.211 2624.81 500.211C2604.75 500.211 2586.72 495.768 2570.73 486.882C2554.99 477.743 2542.55 465.048 2533.41 448.8C2524.52 432.297 2520.08 413.256 2520.08 391.676C2520.08 370.096 2524.4 351.182 2533.03 334.933C2541.91 318.431 2554.23 305.736 2569.97 296.85C2585.96 287.965 2604.24 283.522 2624.81 283.522C2644.61 283.522 2662.25 287.838 2677.74 296.47C2693.23 305.102 2705.29 317.288 2713.92 333.029C2722.55 348.516 2726.87 366.415 2726.87 386.725ZM2681.55 373.016C2681.3 357.021 2675.58 344.2 2664.41 334.552C2653.24 324.905 2639.4 320.081 2622.9 320.081C2607.92 320.081 2595.1 324.905 2584.44 334.552C2573.78 343.946 2567.43 356.767 2565.4 373.016H2681.55Z" fill="black" />
	</g>
</svg>
